<svg xmlns="http://www.w3.org/2000/svg" version="1.1" viewBox="-5.0 -10.0 110.0 135.0">
 <path fill="none" stroke="white" stroke-width="2" d="m50 9.6328c-7.1367 0-12.965 5.8242-12.965 12.965 0 7.1367 5.8242 12.965 12.965 12.965 7.1367 0 12.965-5.8242 12.965-12.965s-5.8242-12.965-12.965-12.965zm-5.9883 28.5c-0.19141 6.7617-0.38281 13.531-0.49219 20.309-0.015625 0.91797 0.64453 1.707 1.5508 1.8555 1.5938 0.26172 3.2539 0.39453 4.9297 0.39453 1.6797 0 3.3398-0.12891 4.9219-0.39062 0.91406-0.14453 1.582-0.94531 1.5586-1.8711-0.15234-6.7656-0.32031-13.527-0.49219-20.293-1.8633 0.72656-3.8828 1.125-5.9883 1.125s-4.125-0.40234-5.9883-1.1289zm15.875 7.625c0.058593 2.3438 0.11328 4.6836 0.17188 7.0273 0.18359 0.074219 0.36719 0.16797 0.54688 0.24219 2.8398 1.3242 5.1406 3.3984 5.1406 6.2617 0 2.8633-2.3008 4.9336-5.1406 6.2617-2.8398 1.3242-6.5312 2.0703-10.602 2.0703-4.0703 0-7.7656-0.74609-10.605-2.0703-2.8438-1.3281-5.1367-3.3984-5.1367-6.2617 0-2.8594 2.2969-4.9336 5.1367-6.2617 0.17187-0.074219 0.34766-0.16797 0.52734-0.23438 0.050781-2.3438 0.10547-4.6836 0.17188-7.0234l-26.289 12.906c-0.20703 0.10938-0.40234 0.21484-0.58984 0.34375l35.621 17.742c0.73047 0.36328 1.5898 0.36328 2.3203 0l35.617-17.742c-0.1875-0.12891-0.37891-0.24219-0.58594-0.34375zm-48.699 16.402c-0.046875 0.27344-0.078125 0.55859-0.078125 0.84375v6.2148c0 1.8359 1.0508 3.5195 2.6992 4.3281l33.715 16.555c0.20312 0.09375 0.41406 0.18359 0.625 0.25781v-9.8867c-0.31641-0.09375-0.62891-0.22266-0.92969-0.375zm77.625 0-36.035 17.945c-0.30078 0.14844-0.60938 0.27344-0.92578 0.37109v9.8906c0.21094-0.074219 0.42188-0.16797 0.625-0.25781l33.715-16.555c1.6484-0.80859 2.6992-2.4922 2.6992-4.3281v-6.2148c0-0.28516-0.027344-0.57031-0.074219-0.84766z"/>
</svg>