<svg fill="white" xmlns="http://www.w3.org/2000/svg" version="1.1" viewBox="-5.0 -10.0 110.0 135.0">
 <path d="m37.93 60.762c-0.078126-1.1992-0.12109-2.4258-0.12109-3.6758 0-1.1641 0.035156-2.3125 0.10547-3.4375 2.125-0.18359 4.4219-0.31641 6.832-0.39063-0.03125 1.25-0.046875 2.5273-0.046875 3.8281 0 1.3828 0.019531 2.7383 0.050781 4.0664-2.4102-0.074219-4.7031-0.20703-6.8242-0.39062zm21.082 10.051c0.21484-0.73438 0.41016-1.4922 0.58984-2.2695-1.9414 0.39453-4.0039 0.68359-6.1602 0.84375-0.0625 0.71875-0.13281 1.4141-0.20312 2.0898-0.11719 1.0742-0.24609 2.0898-0.38672 3.0469 1.8086-0.17969 3.5547-0.49219 5.2188-0.92188 0.33984-0.87891 0.65625-1.8125 0.94141-2.7891zm-13.895-24.965c-2.2148 0.16797-4.332 0.47266-6.3086 0.89062-0.38672 1.9141-0.67188 3.9531-0.83594 6.082 2.1172-0.17969 4.4023-0.3125 6.7969-0.38281 0.066407-2.3164 0.1875-4.5234 0.34766-6.5859zm0.45312 7.3867c-0.03125 1.2578-0.046874 2.543-0.046874 3.8516 0 1.3906 0.019531 2.7578 0.050781 4.0859 1.207 0.03125 2.4453 0.046875 3.7031 0.046875 1.2891 0 2.5547-0.015625 3.793-0.046875 0.035157-1.332 0.050782-2.6953 0.050782-4.0859 0-1.3086-0.015625-2.5938-0.046875-3.8477-1.2383-0.03125-2.5078-0.046875-3.7969-0.046875-1.2578 0-2.4961 0.015625-3.707 0.046875zm-0.43359 15.328c-0.16406-2.0586-0.28906-4.2695-0.35938-6.5859-2.3906-0.074218-4.6719-0.20312-6.7852-0.38281 0.17187 2.1328 0.46875 4.1758 0.86719 6.0898 1.9727 0.41406 4.0781 0.71484 6.2773 0.88281zm-5.582-24.918c-0.20313 0.71484-0.39063 1.4531-0.55859 2.2148 1.9492-0.39453 4.0273-0.67969 6.1914-0.84375 0.0625-0.70703 0.125-1.3945 0.19531-2.0625 0.11328-1.082 0.24219-2.1094 0.37891-3.0742-1.8281 0.17578-3.5938 0.49219-5.2773 0.92578-0.33984 0.89453-0.64844 1.8438-0.92969 2.8359zm1.0312 29.984c1.6602 0.42578 3.4062 0.73047 5.2109 0.90625-0.14062-0.95703-0.26953-1.9766-0.38672-3.0547-0.074218-0.67188-0.14062-1.3672-0.20312-2.082-2.1523-0.16016-4.2148-0.44141-6.1562-0.83203 0.17969 0.77344 0.375 1.5273 0.58594 2.2539 0.28906 0.98438 0.60547 1.9258 0.94922 2.8125zm-5.0039-6.7734c0.76953 0.23047 1.5703 0.44141 2.3945 0.63281-0.37891-1.8867-0.65625-3.8867-0.82031-5.9688-0.76562-0.070312-1.5078-0.14844-2.2266-0.23047-1.2344-0.14453-2.3945-0.30469-3.4688-0.48437 0.17578 1.6953 0.46875 3.332 0.86719 4.8984 1.0117 0.42188 2.0977 0.80859 3.25 1.1523zm22.59-26.02c-1.6836-0.44141-3.4531-0.76172-5.2852-0.94531 0.13672 0.96094 0.26562 1.9844 0.37891 3.0625 0.070313 0.66797 0.13672 1.3594 0.19531 2.0703 2.168 0.16406 4.2422 0.45312 6.1953 0.85547-0.17188-0.76562-0.35938-1.5117-0.5625-2.2344-0.27734-0.98438-0.58594-1.9219-0.92188-2.8125zm-23.145 19.633c0.66797 0.078125 1.3594 0.15234 2.0742 0.21875-0.074218-1.1758-0.11328-2.3789-0.11328-3.6016 0-1.1406 0.035157-2.2617 0.097657-3.3633-0.70703 0.066406-1.3945 0.14062-2.0586 0.21484-1.3125 0.15234-2.5352 0.32812-3.6562 0.51562-0.0625 0.86328-0.09375 1.7422-0.09375 2.6289 0 0.96875 0.039062 1.9258 0.11328 2.8672 1.1172 0.19141 2.332 0.36328 3.6367 0.51562zm-0.83984-17.27c-0.30078 0.65234-0.58203 1.3281-0.84375 2.0234-0.30469 0.81641-0.57812 1.6562-0.82031 2.5195 0.89062-0.35547 1.832-0.67969 2.8203-0.97656 0.88672-0.26562 1.8086-0.50391 2.7617-0.71875 0.19531-0.90234 0.41406-1.7812 0.65234-2.625 0.23047-0.8125 0.48047-1.5938 0.75-2.3477-0.92187 0.26953-1.8164 0.57812-2.6797 0.91797-0.91797 0.36328-1.8008 0.76562-2.6445 1.2031zm-8.1953 11.723c1.1836-0.42969 2.7461-0.82422 4.6094-1.1641 0.14453-1.582 0.38672-3.1211 0.72266-4.6055-2.0391 0.95312-3.7227 2.0625-4.957 3.2891-0.16797 0.8125-0.29297 1.6406-0.375 2.4805zm1.6797-6.7109c-0.37891 0.91406-0.70312 1.8555-0.96875 2.8242 1.3086-1.0781 2.9531-2.0508 4.8672-2.8906 0.28516-1.1055 0.625-2.1758 1.0078-3.207 0.13672-0.36719 0.27734-0.72656 0.42578-1.082-2.1016 1.2383-3.9062 2.707-5.3359 4.3555zm7.9102-0.65625c-1.1758 0.35156-2.2852 0.74609-3.3164 1.1797-0.38281 1.5625-0.66406 3.1914-0.82422 4.875 1.0781-0.17969 2.2461-0.34375 3.4922-0.48828 0.71094-0.082032 1.4492-0.16016 2.207-0.23047 0.15625-2.0781 0.42188-4.0742 0.78906-5.9609-0.80859 0.1875-1.5898 0.39453-2.3477 0.62109zm10.453 21.895c0.058594 0.66406 0.12109 1.3125 0.19141 1.9414 0.125 1.1406 0.26172 2.2109 0.41016 3.2109 0.86719 0.0625 1.75 0.09375 2.6406 0.09375 0.92188 0 1.8359-0.035156 2.7344-0.10156 0.14844-0.99609 0.28516-2.0703 0.41016-3.207 0.066406-0.62891 0.13281-1.2812 0.19141-1.9492-1.0898 0.066406-2.2031 0.097656-3.332 0.097656-1.0977 0-2.1797-0.03125-3.2422-0.09375zm0.16406-26.41c-0.066407 0.625-0.12891 1.2656-0.18359 1.9258 1.0703-0.0625 2.1602-0.09375 3.2656-0.09375 1.1367 0 2.2578 0.035156 3.3555 0.10156-0.058594-0.66016-0.11719-1.3047-0.18359-1.9297-0.12109-1.1406-0.25391-2.2188-0.40234-3.2227-0.91016-0.070312-1.832-0.10547-2.7695-0.10547-0.90625 0-1.7969 0.03125-2.6758 0.097656-0.14844 1.0078-0.28125 2.0859-0.40234 3.2266zm-0.60547 9.3711c1.2031-0.03125 2.4336-0.046875 3.6875-0.046875 1.2812 0 2.543 0.015625 3.7773 0.046875-0.070313-2.332-0.1875-4.5508-0.35156-6.6172-1.1211-0.070313-2.2617-0.10547-3.4219-0.10547-1.1289 0-2.2422 0.035156-3.332 0.10156-0.16406 2.0664-0.28516 4.2891-0.35156 6.6211zm6.3242-13.43c-0.33984-2.1289-0.73828-3.8867-1.1797-5.1758-0.46875-0.027344-0.9375-0.042969-1.4141-0.042969-0.47656 0-0.94531 0.015625-1.4141 0.042969-0.44141 1.2852-0.83984 3.043-1.1797 5.168 0.83984-0.058594 1.6875-0.085937 2.5508-0.085937 0.89062 0 1.7734 0.03125 2.6406 0.09375zm16.277 18.105c0 0.91406-0.035156 1.8125-0.097656 2.7031 1.9336-0.36328 3.5078-0.78516 4.6289-1.2461 0.023438-0.44141 0.039063-0.89062 0.039063-1.3398s-0.011719-0.89453-0.039063-1.3398c-1.1172-0.45703-2.6875-0.87891-4.6133-1.2422 0.054688 0.8125 0.082031 1.6328 0.082031 2.4648zm-15.148 4.9102c-1.2305 0.03125-2.4883 0.046875-3.7695 0.046875-1.25 0-2.4766-0.015625-3.6797-0.046875 0.074219 2.3359 0.19531 4.5586 0.36328 6.6211 1.0859 0.066406 2.1914 0.10156 3.3125 0.10156 1.1562 0 2.2891-0.035156 3.4062-0.10547 0.16797-2.0625 0.29297-4.2852 0.36328-6.6172zm11.438-18.734c-0.83203-0.4375-1.7031-0.84375-2.6133-1.207-0.87891-0.35156-1.7891-0.66797-2.7266-0.94922 0.26562 0.74219 0.51172 1.5156 0.73828 2.3164 0.24219 0.85156 0.46094 1.7344 0.65625 2.6445 0.96484 0.21875 1.8945 0.46094 2.7852 0.73438 0.98047 0.29688 1.918 0.625 2.8047 0.98047-0.24609-0.87891-0.52344-1.7344-0.83203-2.5586-0.25-0.67188-0.52344-1.3281-0.8125-1.9609zm-4.6914 24.398c0.39844-1.9102 0.69141-3.9492 0.86328-6.0781-2.1133 0.17969-4.3945 0.3125-6.7852 0.38672-0.070313 2.3164-0.19531 4.5273-0.35938 6.582 2.2031-0.17188 4.3125-0.47656 6.2812-0.89453zm3.2969-20.07c-0.76172-0.23047-1.5508-0.44141-2.3672-0.63281 0.36328 1.8789 0.63281 3.8711 0.78516 5.9453 0.76563 0.070312 1.5039 0.14844 2.2188 0.23438 1.2422 0.14453 2.4062 0.3125 3.4805 0.49219-0.16016-1.6719-0.4375-3.2969-0.81641-4.8477-1.0273-0.4375-2.1289-0.83594-3.3008-1.1875zm3.2344 18.07c0.39453-1.5586 0.68359-3.1875 0.85938-4.8711-1.0664 0.17969-2.2227 0.34375-3.457 0.48828-0.72266 0.085937-1.4688 0.16406-2.2383 0.23438-0.16406 2.0781-0.44141 4.0742-0.81641 5.957 0.83203-0.19531 1.6406-0.41016 2.418-0.64453 1.1484-0.34766 2.2305-0.73438 3.2383-1.1602zm1.0469-8.5742c0-0.88281-0.03125-1.7539-0.09375-2.6133-1.1172-0.19141-2.3359-0.36719-3.6445-0.51953-0.66797-0.078125-1.3594-0.15234-2.0703-0.21875 0.066406 1.0977 0.097656 2.2188 0.097656 3.3555 0 1.2188-0.039062 2.418-0.11328 3.5938 0.71875-0.066406 1.4141-0.14062 2.0859-0.22266 1.3008-0.15234 2.5156-0.32813 3.625-0.51563 0.074219-0.9375 0.11328-1.8906 0.11328-2.8516zm-6.6953-4.2578c-0.16406-2.1211-0.44531-4.1562-0.83203-6.0664-1.9805-0.42188-4.0977-0.73047-6.3125-0.90234 0.16016 2.0586 0.27734 4.2695 0.34766 6.582 2.3984 0.074219 4.6797 0.20703 6.7969 0.39062zm0.16016 4.2578c0-1.1641-0.035157-2.3086-0.10547-3.4297-2.125-0.18359-4.418-0.32031-6.832-0.39453 0.03125 1.25 0.046874 2.5273 0.046874 3.8242 0 1.3828-0.019531 2.7383-0.050781 4.0625 2.4102-0.074219 4.7031-0.21094 6.8242-0.39453 0.078125-1.1992 0.12109-2.4219 0.12109-3.668zm-26.5 14.199c0.79687 0.41016 1.6328 0.78516 2.4961 1.1289 0.89453 0.35156 1.8203 0.66797 2.7773 0.94531-0.27344-0.74219-0.52734-1.5156-0.76172-2.3203-0.25-0.85547-0.47656-1.7461-0.67969-2.668-0.97266-0.21484-1.9141-0.46094-2.8164-0.73047-0.96094-0.28516-1.875-0.60156-2.7461-0.94531 0.26172 0.90234 0.55859 1.7812 0.88672 2.6289 0.26172 0.67188 0.54297 1.3242 0.84375 1.9609zm14.941 4.2383c-0.84766 0-1.6836-0.027344-2.5117-0.085938 0.35547 2.1523 0.76953 3.9141 1.2266 5.1719 0.44141 0.023437 0.88281 0.035156 1.3281 0.035156 0.44531 0 0.88672-0.011719 1.3281-0.035156 0.45703-1.2578 0.875-3.0234 1.2266-5.1797-0.85547 0.058593-1.7227 0.089843-2.6016 0.089843zm-20.508-7.0352c1.0742 1.9492 2.4141 3.7305 3.9766 5.293 1.3398 1.3398 2.8438 2.5195 4.4766 3.5039-1.3398-1.5625-2.5195-3.3789-3.5078-5.3945-1.8555-0.97656-3.5195-2.1211-4.9453-3.4023zm-0.875-26.301c0-0.046875-0.035156-0.082031-0.082031-0.082031-1.2305 0-2.3477-0.75391-3.1602-1.9688-0.81641-1.2266-1.3242-2.9219-1.3242-4.7969 0-0.046875-0.035156-0.082032-0.082031-0.082032s-0.082032 0.035157-0.082032 0.082032c0 1.875-0.50391 3.5703-1.3242 4.7969-0.8125 1.2148-1.9297 1.9688-3.1602 1.9688-0.046876 0-0.082032 0.035156-0.082032 0.082031s0.035156 0.082031 0.082032 0.082031c1.2305 0 2.3477 0.75391 3.1602 1.9688 0.81641 1.2266 1.3242 2.9219 1.3242 4.7969 0 0.046875 0.035157 0.082032 0.082032 0.082032s0.082031-0.035157 0.082031-0.082032c0-1.875 0.50391-3.5703 1.3242-4.7969 0.8125-1.2148 1.9297-1.9688 3.1602-1.9688 0.046875 0 0.082031-0.035156 0.082031-0.082031zm8.6367 30.992c-0.53906-0.21094-1.0625-0.4375-1.5781-0.67578 1.2734 2.3633 2.8359 4.4023 4.6055 6.0195 1.1211 0.51562 2.2891 0.94141 3.4961 1.2773-1.1641-1.457-2.2031-3.3125-3.0781-5.4805-1.1953-0.32031-2.3438-0.70312-3.4453-1.1367zm-6.082-16.094c0-0.83594 0.027343-1.6641 0.082031-2.4805-1.9141 0.35938-3.4805 0.76953-4.6133 1.2227-0.027344 0.45703-0.039063 0.91406-0.039063 1.3789 0 0.46094 0.011719 0.92188 0.039063 1.3789 1.1328 0.45312 2.707 0.86719 4.6289 1.2266-0.066406-0.89453-0.10156-1.8008-0.10156-2.7188zm2.6875 13.547c-0.14453-0.33203-0.28125-0.66797-0.41406-1.0117-0.41406-1.0664-0.77734-2.1758-1.0859-3.3242-1.9453-0.84766-3.6133-1.832-4.9375-2.9219 0.26172 0.96875 0.58594 1.9102 0.96875 2.8242 1.457 1.6797 3.3086 3.1797 5.4688 4.4336zm-2.5156-9.9766c-1.8711-0.33984-3.4414-0.73438-4.6328-1.168 0.082031 0.83984 0.20703 1.668 0.375 2.4805 1.2461 1.2383 2.9531 2.3594 5.0195 3.3164-0.35156-1.4883-0.60547-3.0352-0.76172-4.6289zm10.348 13.914c0.98438 2.2969 2.1602 4.1914 3.4688 5.5664 0.87109 0.18359 1.7617 0.32031 2.6641 0.40625-0.44141-1.3125-0.83594-3.0664-1.1758-5.1719-1.7109-0.15625-3.3672-0.42578-4.957-0.80078zm29.453 6.4219c-0.81641-1.2266-1.3242-2.9219-1.3242-4.7969 0-0.046874-0.035156-0.082031-0.082031-0.082031s-0.082031 0.035157-0.082031 0.082031c0 1.875-0.50391 3.5703-1.3242 4.7969-0.8125 1.2148-1.9297 1.9688-3.1602 1.9688-0.046875 0-0.082031 0.035156-0.082031 0.082031s0.035156 0.082031 0.082031 0.082031c1.2305 0 2.3477 0.75391 3.1602 1.9688 0.81641 1.2266 1.3242 2.9219 1.3242 4.7969 0 0.046875 0.035156 0.082031 0.082031 0.082031s0.082031-0.035156 0.082031-0.082031c0-1.875 0.50391-3.5703 1.3242-4.7969 0.8125-1.2148 1.9297-1.9688 3.1602-1.9688 0.046875 0 0.082031-0.035156 0.082031-0.082031s-0.035156-0.082031-0.082031-0.082031c-1.2305 0-2.3477-0.75391-3.1602-1.9688zm9.0508-8.2031c0.046875 0 0.082032-0.035156 0.082032-0.082031s-0.035157-0.082031-0.082032-0.082031c-1.2344 0-2.3555-0.59375-3.1641-1.5508-0.8125-0.96484-1.3164-2.293-1.3164-3.7656 0-0.046875-0.035157-0.082032-0.082032-0.082032s-0.082031 0.035157-0.082031 0.082032c0 1.4727-0.50391 2.8047-1.3164 3.7656-0.8125 0.96094-1.9297 1.5508-3.1641 1.5508-0.046875 0-0.082031 0.035156-0.082031 0.082031s0.035156 0.082031 0.082031 0.082031c1.2344 0 2.3555 0.59375 3.1641 1.5508 0.8125 0.96484 1.3164 2.293 1.3164 3.7656 0 0.046875 0.035156 0.082031 0.082031 0.082031s0.082032-0.035156 0.082032-0.082031c0-1.4727 0.50391-2.8047 1.3164-3.7656 0.8125-0.96094 1.9297-1.5508 3.1641-1.5508zm1.8438 7.7383c-0.76953 0-1.4688-0.37109-1.9766-0.96875-0.51172-0.60156-0.82422-1.4375-0.82422-2.3594 0-0.046875-0.035156-0.082031-0.082031-0.082031s-0.082032 0.035156-0.082032 0.082031c0 0.92188-0.31641 1.7578-0.82422 2.3594-0.50781 0.60156-1.207 0.96875-1.9766 0.96875-0.046875 0-0.082031 0.035156-0.082031 0.082031s0.035156 0.082031 0.082031 0.082031c0.76953 0 1.4688 0.37109 1.9766 0.96875 0.51172 0.60156 0.82422 1.4375 0.82422 2.3594 0 0.046875 0.035157 0.082031 0.082032 0.082031s0.082031-0.035156 0.082031-0.082031c0-0.92188 0.31641-1.7578 0.82422-2.3594 0.50781-0.60156 1.207-0.96875 1.9766-0.96875 0.046875 0 0.082032-0.035156 0.082032-0.082031s-0.035157-0.082031-0.082032-0.082031zm-19.137-7.4102c-1.1172 0.44922-2.2852 0.83984-3.4961 1.1719-0.87891 2.1797-1.9219 4.0469-3.0898 5.5078 1.207-0.33594 2.375-0.76172 3.4961-1.2773 1.7852-1.6289 3.3594-3.6875 4.6367-6.0781-0.50391 0.23828-1.0195 0.46094-1.5469 0.67188zm7.7852-4.793c-1.4336 1.3203-3.1172 2.5-5.0039 3.5039-0.99219 2.043-2.1836 3.8828-3.5391 5.4609 1.6328-0.98437 3.1367-2.1641 4.4766-3.5039 1.6055-1.6055 2.9805-3.4414 4.0664-5.457zm-17.242 7.0391c-0.33984 2.1055-0.73828 3.8672-1.1758 5.1797 0.90234-0.085938 1.793-0.22266 2.6641-0.40625 1.3125-1.3789 2.4922-3.2852 3.4766-5.5898-1.5898 0.38281-3.25 0.66016-4.9648 0.81641zm-6.8359-36.32c0.32812-2.082 0.71094-3.832 1.1328-5.168-0.96875 0.09375-1.9258 0.25-2.8555 0.45703-1.25 1.3984-2.3672 3.2812-3.3047 5.5312 1.6094-0.38672 3.293-0.66406 5.0273-0.82422zm16.293 2.25c0.58594 0.23438 1.1562 0.48828 1.7148 0.75391-1.1914-2.293-2.6484-4.2969-4.3047-5.918-1.1992-0.58594-2.457-1.0703-3.7617-1.4453 1.1211 1.4766 2.1172 3.3242 2.9609 5.4688 1.1758 0.32422 2.3086 0.70703 3.3906 1.1406zm3.4922 2.6328c0.13672 0.33203 0.26953 0.66797 0.39844 1.0117 0.39063 1.043 0.73047 2.1289 1.0195 3.25 1.9258 0.85547 3.5781 1.8477 4.8789 2.9453-0.25-0.92969-0.55469-1.8359-0.91016-2.7188-1.4258-1.6953-3.2539-3.2148-5.3867-4.4844zm4.293 2.1602c-1.0859-2.0156-2.4609-3.8516-4.0664-5.457-1.2266-1.2266-2.5938-2.3203-4.0664-3.2539 1.2539 1.5469 2.3594 3.3281 3.2812 5.2891 1.8242 0.98438 3.457 2.1367 4.8516 3.4219zm-1.918 7.6914c1.8711 0.34766 3.4336 0.74219 4.6094 1.1797-0.078125-0.8125-0.19531-1.6133-0.35547-2.4023-1.2227-1.25-2.9141-2.3828-4.9688-3.3555 0.33203 1.4727 0.57031 3.0039 0.71484 4.5742zm4.6094 5.6758c-1.1797 0.4375-2.75 0.83984-4.6328 1.1836-0.15234 1.582-0.40625 3.1172-0.75391 4.5977 2.0859-0.97656 3.7969-2.1211 5.0312-3.3828 0.16016-0.78516 0.27734-1.5898 0.35547-2.4023zm-1.5977 6.5469c0.35547-0.88281 0.66016-1.7891 0.91016-2.7188-1.3203 1.1094-2.9922 2.1133-4.9492 2.9727-0.30859 1.1641-0.67578 2.2891-1.0977 3.3672-0.125 0.31641-0.25 0.63281-0.38281 0.94141 2.1914-1.2891 4.0664-2.832 5.5195-4.5625zm-43.32-32.512c0.8125 0.96484 1.3164 2.293 1.3164 3.7656 0 0.046875 0.035156 0.082032 0.082031 0.082032s0.082031-0.035157 0.082031-0.082032c0-1.4727 0.50391-2.8047 1.3164-3.7656 0.8125-0.96094 1.9297-1.5508 3.1641-1.5508 0.046875 0 0.082031-0.035156 0.082031-0.082031s-0.035156-0.082031-0.082031-0.082031c-1.2344 0-2.3555-0.59375-3.1641-1.5508-0.8125-0.96484-1.3164-2.293-1.3164-3.7656 0-0.046875-0.035156-0.082031-0.082031-0.082031s-0.082031 0.035156-0.082031 0.082031c0 1.4727-0.50391 2.8047-1.3164 3.7656-0.8125 0.96094-1.9297 1.5508-3.1641 1.5508-0.046875 0-0.082031 0.035156-0.082031 0.082031s0.035156 0.082031 0.082031 0.082031c1.2344 0 2.3555 0.59375 3.1641 1.5508zm25.023 5.5625c1.7383 0.16406 3.4258 0.44922 5.0391 0.83984-0.94141-2.2617-2.0625-4.1523-3.3164-5.5586-0.93359-0.21094-1.8867-0.36328-2.8555-0.45703 0.42578 1.3359 0.80859 3.0898 1.1367 5.1758zm-16.23 2.1797c1.0703-0.42188 2.1836-0.79297 3.3398-1.1094 0.83984-2.1328 1.8359-3.9727 2.9492-5.4414-1.3047 0.375-2.5586 0.86328-3.7617 1.4453-1.6445 1.6094-3.0898 3.5898-4.2734 5.8594 0.56641-0.26562 1.1484-0.51953 1.7422-0.75391zm-7.7578 4.6914c1.3867-1.2461 3-2.3672 4.793-3.3242 0.91797-1.9336 2.0117-3.6914 3.25-5.2227-1.4766 0.93359-2.8398 2.0234-4.0664 3.2539-1.5625 1.5625-2.9023 3.3438-3.9766 5.293zm35.566 25.305c0.29297-0.61328 0.5625-1.2461 0.81641-1.8984 0.33594-0.85938 0.63672-1.75 0.89844-2.668-0.86328 0.34375-1.7734 0.66016-2.7266 0.94922-0.91016 0.27344-1.8594 0.52344-2.8398 0.74609-0.20312 0.92578-0.43359 1.8242-0.6875 2.6875-0.23047 0.79297-0.48047 1.5586-0.75 2.2891 0.97266-0.28516 1.918-0.61328 2.8242-0.97656 0.85547-0.34375 1.6797-0.72266 2.4688-1.1328zm-15.016-42.527c0.60547 0 1.1523-0.24609 1.5508-0.64062 0.39844-0.39844 0.64062-0.94531 0.64062-1.5508 0-0.60547-0.24609-1.1523-0.64062-1.5508-0.30859-0.30859-0.70703-0.51953-1.1523-0.60156 0-0.015625 0.007813-0.027344 0.007813-0.039063v-13.883c0-0.22266-0.18359-0.40625-0.40625-0.40625-0.22266 0-0.40625 0.18359-0.40625 0.40625v13.883c0 0.015625 0.007812 0.027344 0.007812 0.039063-0.44531 0.082031-0.84375 0.29297-1.1523 0.60156-0.39844 0.39844-0.64063 0.94531-0.64063 1.5508 0 0.60547 0.24609 1.1523 0.64063 1.5508 0.39844 0.39844 0.94531 0.64062 1.5508 0.64062zm2.5195 4.6992v-2.9961c0-0.37891-0.15625-0.72266-0.40625-0.97266s-0.59375-0.40625-0.97266-0.40625h-2.2891c-0.37891 0-0.72266 0.15625-0.97266 0.40625s-0.40625 0.59375-0.40625 0.97266v2.9961c0.82812-0.085938 1.668-0.12891 2.5195-0.12891 0.85156 0 1.6914 0.042969 2.5195 0.12891z"/>
</svg>