<svg fill="white" xmlns="http://www.w3.org/2000/svg" version="1.1" viewBox="-5.0 -10.0 110.0 135.0">
 <path d="m39.078 11.281c0 0.41016-0.10156 0.82031-0.10156 1.2305 0 0.92188 0.20703 1.8477 0.41016 2.5625 0.20703 0.51172 0.61719 1.332 1.332 1.7422 0.30859 0.20703 0.61719 0.30859 1.0273 0.30859s0.82031-0.41016 1.1289-0.71875c0.92188-0.92188 1.332-2.2578 1.0273-3.5898 0.61719 1.5391 0.51172 3.1797-0.61719 4.3086-0.10156 0.10156-0.20703 0.20703-0.30859 0.20703h0.20703c2.3594-0.10156 4.3086-2.668 4.3086-5.5391 0-3.8984-4.8203-7.0781-3.3828-10.359 0 0-4.207 2.8711-5.0273 8.6172 0 0.30859-0.10156 0.51172-0.10156 0.82031 0.19922 0.20703 0.19922 0.30859 0.097656 0.41016z"/>
 <path d="m55.793 15.078c-1.4375 3.2812-7.0781 1.8477-9.9492 4.4102-2.1523 1.9492-2.7695 5.0273-1.2305 6.8711 0 0.10156 0.10156 0.10156 0.10156 0.20703v-0.30859c0.10156-1.5391 1.2305-2.7695 2.7695-3.2812-1.1289 0.71875-1.9492 1.8477-1.9492 3.1797 0 0.41016-0.10156 1.0273 0.20703 1.332 0.20703 0.30859 0.61719 0.51172 0.92187 0.61719 0.71875 0.20703 1.6406 0 2.1523-0.20703 0.82031-0.30859 1.5391-0.82031 2.2578-1.4375 0.30859-0.30859 0.61719-0.61719 0.92188-0.92188l0.10156-0.10156c0.20703-0.20703 0.41016-0.41016 0.61719-0.61719 3.6953-4.7188 3.0781-9.7422 3.0781-9.7422z"/>
 <path d="m85.129 36.719c-1.0273-1.7422-3.0781-2.5625-4.6172-1.8477l-0.10156 0.10156h0.20703c1.0273 0.30859 1.7422 1.2305 1.8477 2.3594-0.30859-0.82031-1.0273-1.5391-1.8477-1.7422-0.30859-0.10156-0.71875-0.20703-0.92188-0.10156-0.20703 0.10156-0.30859 0.20703-0.41016 0.41016 0 0.10156-0.10156 0.10156-0.10156 0.20703-0.20703 0.41016-0.20703 0.92188-0.10156 1.332 0.10156 0.51172 0.30859 1.1289 0.61719 1.6406 0.10156 0.10156 0.10156 0.20703 0.20703 0.30859 0.10156 0.20703 0.30859 0.41016 0.41016 0.61719 2.5625 3.4883 6.4609 3.8984 6.4609 3.8984-2.1602-1.4414-0.31641-4.8242-1.6484-7.1836z"/>
 <path d="m75.383 20.309v0.20703c0.10156 0.41016 0.10156 0.82031 0.20703 1.2305 0.20703 0.92188 0.61719 1.7422 1.0273 2.4609 0.30859 0.51172 0.92187 1.2305 1.6406 1.4375 0.30859 0.10156 0.71875 0.20703 1.1289 0.10156 0.41016-0.10156 0.71875-0.61719 0.92188-0.92188 0.71875-1.1289 0.71875-2.4609 0.20703-3.6914 1.0273 1.332 1.2305 3.0781 0.30859 4.3086-0.10156 0.10156-0.10156 0.20703-0.20703 0.30859h0.20703c2.2578-0.71875 3.5898-3.4883 2.9727-6.3594-0.92188-3.793-6.3594-5.7422-5.6406-9.332 0 0-3.3828 3.6914-2.9727 9.5391 0.097656 0.19531 0.097656 0.50391 0.19922 0.71094z"/>
 <path d="m19.793 39.18h0.20703c0.20703 0 0.41016 0.10156 0.71875 0.10156s0.51172 0.10156 0.82031 0.10156c0.92188 0.10156 1.8477 0.10156 2.668-0.10156 0.61719-0.10156 1.4375-0.41016 1.8477-1.1289 0.20703-0.30859 0.41016-0.61719 0.41016-1.0273s-0.30859-0.82031-0.61719-1.2305c-0.82031-1.0273-2.0508-1.5391-3.3828-1.4375 1.6406-0.51172 3.2812-0.10156 4.207 1.1289 0.10156 0.10156 0.10156 0.20703 0.20703 0.30859v-0.20703c0.10156-2.3594-2.0508-4.6172-4.9219-4.9219-4.0078-0.30469-7.6992 4.1055-10.777 2.2617 0 0 2.4609 4.8203 8.6133 6.1523z"/>
 <path d="m30.051 60.719c0-0.20703 0-0.51172-0.20703-0.71875-0.10156-0.30859-0.51172-0.51172-0.82031-0.71875-0.82031-0.51172-1.7422-0.51172-2.3594-0.10156 0.61719-0.82031 1.6406-1.0273 2.668-0.30859 0.10156 0 0.10156 0.10156 0.20703 0.10156 0-0.10156 0-0.10156-0.10156-0.20703-0.82031-1.7422-2.9727-2.7695-4.6172-2.2578-2.2578 0.82031-2.4609 5.0273-4.8203 4.6172 0 0 3.2812 2.8711 6.9727 2.1523h0.10156c0.20703 0 0.30859-0.10156 0.51172-0.10156 0.10156 0 0.20703-0.10156 0.41016-0.10156 0.51172-0.20703 1.0273-0.51172 1.332-0.82031 0.41406-0.40625 0.82422-0.92188 0.72266-1.5352v0z"/>
 <path d="m62.562 18.871c0-0.10156 0-0.20703-0.10156-0.30859-0.20703-1.332 0.51172-2.668 1.8477-3.3828-0.82031 0.82031-1.332 1.9492-1.1289 3.0781 0.10156 0.41016 0.10156 0.82031 0.41016 1.1289 0.30859 0.20703 0.61719 0.30859 0.92188 0.30859 0.71875 0.10156 1.4375-0.30859 1.8477-0.51172 0.61719-0.41016 1.2305-0.92188 1.7422-1.6406 0.20703-0.30859 0.41016-0.61719 0.61719-0.92188 0-0.10156 0.10156-0.10156 0.10156-0.20703 0.10156-0.20703 0.20703-0.41016 0.30859-0.61719 2.4609-4.5117 1.0273-8.8203 1.0273-8.8203-0.71875 3.0781-5.7422 2.7695-7.793 5.5391-1.5391 2.0508-1.4375 4.8203 0.10156 6.1523-0.10547 0.10156-0.003906 0.20312 0.097656 0.20312z"/>
 <path d="m32.102 22.258c0 0.10156 0.10156 0.10156 0.10156 0.20703 0.30859 0.30859 0.51172 0.61719 0.82031 0.92188 0.61719 0.61719 1.4375 1.1289 2.1523 1.5391 0.51172 0.20703 1.4375 0.51172 2.1523 0.30859 0.41016-0.10156 0.71875-0.20703 0.92188-0.51172 0.30859-0.30859 0.30859-0.82031 0.30859-1.332 0-1.332-0.71875-2.4609-1.8477-3.1797 1.5391 0.61719 2.668 1.9492 2.668 3.4883v0.30859c0-0.10156 0.10156-0.10156 0.20703-0.10156 1.5391-1.8477 1.1289-4.9219-1.0273-6.9727-2.8711-2.668-8.4102-1.4375-9.7422-4.8203 0 0-0.82031 5.0273 2.668 9.6406 0.20703 0.09375 0.41406 0.29688 0.61719 0.50391z"/>
 <path d="m77.129 33.438c1.1289-1.4375 0.82031-4.1016-0.71875-5.7422-2.0508-2.2578-6.1523-1.2305-7.0781-3.8984 0 0-0.71875 4.4102 2.2578 8.4102 0.20703 0.20703 0.30859 0.41016 0.51172 0.61719 0.10156 0.10156 0.20703 0.20703 0.30859 0.30859 0.51172 0.51172 1.0273 0.92188 1.5391 1.2305 0.41016 0.20703 1.0273 0.41016 1.5391 0.20703 0.30859-0.10156 0.51172-0.20703 0.71875-0.41016 0.20703-0.30859 0.20703-0.71875 0.20703-1.0273 0-1.1289-0.51172-2.0508-1.332-2.668 1.1289 0.51172 1.9492 1.5391 1.9492 2.8711v0.30859c-0.003906-0.10547 0.097656-0.10547 0.097656-0.20703z"/>
 <path d="m45.23 37.742 0.20703 0.20703v-0.20703c-0.51172-1.7422-2.7695-3.0781-5.0273-2.7695-2.9727 0.30859-4.6172 4.207-7.3828 3.3828 0 0 3.1797 3.0781 8 3.0781h0.20703 0.41016 0.71875c0.71875-0.10156 1.332-0.30859 1.9492-0.51172 0.41016-0.20703 0.92188-0.61719 1.1289-1.1289 0.10156-0.20703 0.10156-0.51172 0.10156-0.82031-0.10156-0.30859-0.41016-0.61719-0.71875-0.82031-0.92188-0.61719-1.9492-0.82031-2.8711-0.51172 0.91797-0.71875 2.2539-0.71875 3.2773 0.10156z"/>
 <path d="m46.562 49.641v0.20703l0.10156-0.10156c0.82031-1.6406 0.20703-3.8984-1.4375-4.9219-2.1523-1.332-5.7422 0.71875-6.9727-1.4375 0 0 0 4.207 3.2812 6.8711 0.20703 0.10156 0.41016 0.30859 0.51172 0.41016 0.10156 0.10156 0.20703 0.10156 0.20703 0.20703 0.51172 0.30859 1.0273 0.51172 1.6406 0.61719 0.30859 0.10156 0.82031 0.10156 1.332-0.20703 0.10156 0 0.10156-0.10156 0.20703-0.10156 0.20703-0.10156 0.30859-0.30859 0.41016-0.51172 0.20703-0.30859 0.10156-0.71875 0-1.0273-0.10156-0.92188-0.71875-1.6406-1.5391-1.9492 1.2344 0.097657 2.1562 0.81641 2.2578 1.9453z"/>
 <path d="m22.258 26.668c0.10156 0.20703 0.20703 0.30859 0.41016 0.41016 0.10156 0.10156 0.20703 0.30859 0.41016 0.41016 0.51172 0.51172 1.0273 0.92188 1.5391 1.2305 0.41016 0.20703 1.0273 0.41016 1.5391 0.20703 0.30859-0.10156 0.51172-0.20703 0.71875-0.41016 0.20703-0.30859 0.20703-0.71875 0.20703-1.0273 0-1.1289-0.51172-2.0508-1.332-2.668 1.1289 0.51172 1.9492 1.5391 1.9492 2.8711v0.30859l0.10156-0.10156c1.1289-1.4375 0.82031-4.1016-0.71875-5.7422-2.0508-2.2578-6.1523-1.2305-7.0781-3.8984 0 0-0.61719 4.4102 2.2578 8.3086-0.003907-0.003906-0.003907-0.003906-0.003907 0.10156z"/>
 <path d="m26.051 42.871c-2.9727-0.41016-5.5391 2.8711-8 1.332 0 0 2.2578 3.8984 6.9727 5.1289h0.10156c0.20703 0.10156 0.41016 0.10156 0.71875 0.10156 0.20703 0 0.30859 0.10156 0.51172 0.10156 0.71875 0.10156 1.4375 0.10156 2.0508 0 0.41016-0.10156 1.0273-0.30859 1.332-0.82031 0.20703-0.20703 0.30859-0.51172 0.30859-0.82031 0-0.30859-0.30859-0.61719-0.51172-0.92188-0.71875-0.82031-1.6406-1.2305-2.668-1.2305 1.2305-0.30859 2.4609 0 3.2812 1.0273 0.10156 0.10156 0.10156 0.10156 0.20703 0.20703v-0.20703c-0.20312-1.7422-2.1484-3.5898-4.3047-3.8984z"/>
 <path d="m19.793 55.793c0.20703 0 0.41016-0.10156 0.61719-0.10156 0.10156 0 0.20703 0 0.30859-0.10156 0.51172-0.10156 1.1289-0.30859 1.5391-0.61719 0.30859-0.20703 0.82031-0.61719 0.82031-1.1289v-0.51172c-0.10156-0.20703-0.41016-0.41016-0.71875-0.61719-0.71875-0.40625-1.6406-0.40625-2.3594-0.097656 0.82031-0.61719 1.8477-0.71875 2.7695-0.20703 0.10156 0 0.10156 0.10156 0.20703 0.10156v-0.10156c-0.61719-1.4375-2.5625-2.2578-4.3086-1.8477-2.3594 0.51172-3.2812 3.8984-5.6406 3.3828-0.10547 0.10547 2.7656 2.3633 6.7656 1.8477z"/>
 <path d="m16.41 43.488c0.10156 0 0.20703-0.10156 0.20703-0.20703 0.10156-0.10156 0.20703-0.10156 0.30859-0.20703l0.30859-0.30859c0.20703-0.20703 0.41016-0.41016 0.51172-0.61719 0.10156-0.20703 0.20703-0.51172 0.20703-0.82031v-0.20703c0-0.10156-0.10156-0.20703-0.20703-0.30859-0.10156-0.10156-0.41016-0.10156-0.61719-0.20703-0.61719-0.10156-1.2305 0.20703-1.6406 0.61719 0.30859-0.61719 1.0273-1.0273 1.7422-0.92188h0.20703l-0.10156-0.10156c-0.82031-0.71875-2.2578-0.61719-3.2812 0.10156-1.332 1.0273-1.0273 3.4883-2.5625 3.8984-0.10938 0.21094 2.457 0.82812 4.918-0.71094-0.10156 0 0 0 0 0z"/>
 <path d="m22.77 16.922 0.51562 0.51562c0.10156 0.10156 0.10156 0.10156 0.20703 0.10156l0.10156 0.10156c0.20703 0.20703 0.41016 0.30859 0.71875 0.41016 0.20703 0.10156 0.51172 0.20703 0.82031 0.10156 0 0 0.10156 0 0.10156-0.10156 0.10156-0.10156 0.20703-0.10156 0.30859-0.20703 0.10156-0.20703 0.10156-0.41016 0-0.61719-0.10156-0.61719-0.41016-1.1289-0.92188-1.4375 0.71875 0.20703 1.2305 0.82031 1.2305 1.5391v0.20703l0.10156-0.10156c0.51172-0.92188 0.20703-2.3594-0.71875-3.2812-1.332-1.1289-3.5898-0.30859-4.3086-1.8477-0.003906-0.20313-0.10547 2.3633 1.8438 4.6172v0z"/>
 <path d="m16.617 27.898c0.20703 0.10156 0.30859 0.10156 0.41016 0.10156 0.10156 0 0.20703 0.10156 0.30859 0.10156h0.20703 0.20703 0.71875c0.20703 0 0.51172-0.10156 0.71875-0.30859l0.10156-0.10156c0.10156-0.10156 0.10156-0.20703 0.10156-0.41016 0-0.20703-0.10156-0.41016-0.30859-0.61719-0.41016-0.51172-0.92188-0.82031-1.5391-0.82031 0.71875-0.10156 1.4375 0.10156 1.8477 0.71875l0.10156 0.10156v-0.10156c0-1.0273-1.0273-2.1523-2.2578-2.4609-1.7422-0.30859-3.2812 1.5391-4.6172 0.51172 0.10156 0.10547 1.2305 2.3594 4 3.2852z"/>
 <path d="m67.078 23.488c-0.10156 1.6406-2.5625 1.7422-3.3828 3.2812-0.61719 1.1289-0.41016 2.668 0.41016 3.2812h0.10156s0-0.10156-0.10156-0.10156c-0.20703-0.71875 0.10156-1.4375 0.61719-1.8477-0.30859 0.41016-0.51172 1.0273-0.30859 1.6406 0.10156 0.20703 0.10156 0.41016 0.30859 0.61719 0.10156 0.10156 0.20703 0.10156 0.41016 0.10156h0.10156 0.10156c0.30859 0 0.61719-0.20703 0.71875-0.41016 0.20703-0.20703 0.30859-0.41016 0.51172-0.61719 0 0 0-0.10156 0.10156-0.10156 0-0.10156 0.10156-0.10156 0.10156-0.20703 0.10156-0.10156 0.10156-0.20703 0.20703-0.41016 0-0.10156 0.10156-0.20703 0.10156-0.20703v-0.10156c1.0234-2.5586 0-4.918 0-4.918z"/>
 <path d="m73.129 64.41c-1.2305 0.41016-2.0508 1.6406-1.9492 2.668v0.10156s0-0.10156 0.10156-0.10156c0.30859-0.61719 1.0273-1.0273 1.7422-0.92188-0.61719 0.10156-1.1289 0.41016-1.4375 1.0273-0.10156 0.20703-0.20703 0.41016-0.20703 0.61719 0 0.10156 0.10156 0.20703 0.20703 0.30859l0.10156 0.10156c0.20703 0.20703 0.51172 0.20703 0.82031 0.20703 0.20703 0 0.51172 0 0.71875-0.10156h0.10156c0.10156 0 0.20703 0 0.20703-0.10156 0.10156 0 0.20703-0.10156 0.41016-0.10156 0.10156 0 0.20703-0.10156 0.20703-0.10156s0.10156 0 0.10156-0.10156c2.5625-1.2305 3.3828-3.5898 3.3828-3.5898-1.0195 1.2188-2.8672-0.42187-4.5078 0.089844z"/>
 <path d="m33.129 10.258c0 0.10156 0.10156 0.20703 0.10156 0.41016 0 0.10156 0.10156 0.30859 0.10156 0.41016 0.20703 0.51172 0.41016 0.92188 0.71875 1.2305 0.20703 0.20703 0.51172 0.51172 0.92188 0.51172 0.20703 0.10156 0.51172 0 0.71875-0.10156 0.20703-0.10156 0.30859-0.41016 0.41016-0.71875 0.30859-0.71875 0.20703-1.5391-0.20703-2.1523 0.61719 0.61719 0.92188 1.6406 0.51172 2.4609 0 0.10156-0.10156 0.10156-0.10156 0.20703 0 0 0.10156 0 0.10156-0.10156 1.1289-0.71875 1.6406-2.5625 1.0273-4.1016-0.82031-2.0508-3.8984-2.4609-3.793-4.6172 0 0-1.6406 2.8711-0.71875 6.3594 0.20703 0.097656 0.20703 0.097656 0.20703 0.20312z"/>
 <path d="m52 10.258 0.10156 0.10156c0.30859 0.30859 0.51172 0.61719 0.92188 0.92188 0.61719 0.61719 1.4375 1.1289 2.1523 1.5391 0.51172 0.20703 1.4375 0.51172 2.1523 0.30859 0.41016-0.10156 0.71875-0.20703 0.92188-0.51172 0.30859-0.30859 0.30859-0.82031 0.30859-1.332 0-1.332-0.71875-2.4609-1.8477-3.1797 1.5391 0.61719 2.668 1.9492 2.668 3.4883v0.30859c0-0.10156 0.10156-0.10156 0.20703-0.10156 1.5391-1.8477 1.1289-4.9219-1.0273-6.9727-2.7656-2.7773-8.4062-1.4453-9.7383-4.8281 0 0-0.82031 5.0273 2.668 9.6406 0.20312 0.20703 0.41016 0.41016 0.51172 0.61719z"/>
 <path d="m60.719 61.332c0.10156 0 0.20703 0.10156 0.30859 0.10156 5.5391 2.668 10.461 0.51172 10.461 0.51172-3.5898-0.51172-3.6914-6.2578-6.9727-8.4102-2.4609-1.5391-5.5391-1.2305-6.9727 0.71875 0 0.10156-0.10156 0.10156-0.10156 0.20703 0.10156 0 0.20703-0.10156 0.30859-0.10156 1.4375-0.41016 3.0781 0.41016 4 1.7422-0.92188-0.92187-2.2578-1.332-3.5898-1.0273-0.41016 0.10156-0.92188 0.20703-1.2305 0.51172-0.20703 0.30859-0.30859 0.71875-0.30859 1.0273 0 0.82031 0.41016 1.5391 0.82031 2.0508 0.51172 0.61719 1.2305 1.332 1.9492 1.7422 0.30859 0.20703 0.71875 0.41016 1.0273 0.61719 0.09375 0.20703 0.19922 0.20703 0.30078 0.30859z"/>
 <path d="m75.691 52.309c-2.2578 1.0273-3.4883 3.793-2.668 5.9492 0 0.10156 0.10156 0.10156 0.10156 0.20703 0-0.10156 0-0.20703 0.10156-0.30859 0.41016-1.4375 1.6406-2.2578 3.0781-2.1523-1.1289 0.20703-2.0508 1.0273-2.3594 2.2578-0.10156 0.41016-0.30859 0.92188-0.10156 1.332 0.10156 0.30859 0.30859 0.51172 0.51172 0.71875 0.51172 0.61719 1.4375 0.71875 2.0508 0.71875 0.71875 0 1.5391-0.20703 2.2578-0.51172 0.20703-0.10156 0.41016-0.20703 0.61719-0.30859 0.20703-0.10156 0.41016-0.20703 0.51172-0.30859l0.10156-0.10156c4.6172-2.8711 5.2305-8.1016 5.2305-8.1016-2.1523 2.4531-6.457-0.82812-9.4336 0.60938z"/>
 <path d="m66.77 52.207c0.10156 0.10156 0.20703 0.10156 0.30859 0.20703 0.51172 0.30859 1.2305 0.30859 1.6406 0.30859 0.61719 0 1.332-0.10156 1.9492-0.30859 0.20703-0.10156 0.30859-0.10156 0.51172-0.20703 0.20703-0.10156 0.30859-0.10156 0.51172-0.20703 0 0 0.10156 0 0.10156-0.10156 3.8984-1.9492 3.8984-5.7422 3.8984-5.7422-1.5391 1.8477-5.9492-0.61719-8.5117 0.30859-1.9492 0.71875-2.7695 2.668-1.7422 4.207 0 0.10156 0.10156 0.10156 0.10156 0.10156v-0.20703c0.20703-1.0273 1.2305-1.5391 2.5625-1.5391-1.0273 0.20703-1.7422 0.71875-1.9492 1.5391-0.10156 0.30859-0.20703 0.61719 0 0.92188 0.20703 0.30469 0.41016 0.51172 0.61719 0.71875v0 0z"/>
 <path d="m61.027 41.848c0.10156 0 0.10156 0.10156 0.20703 0.10156 0.41016 0.10156 0.82031 0.10156 1.1289 0 0.51172-0.10156 0.92188-0.30859 1.4375-0.61719 0.10156-0.10156 0.20703-0.10156 0.30859-0.20703 0.10156-0.10156 0.30859-0.20703 0.41016-0.30859 2.7695-2.3594 2.8711-5.5391 2.8711-5.5391-1.1289 1.7422-4.207 0.51172-6.0508 1.7422-1.4375 0.92188-1.9492 2.668-1.2305 3.8984l0.10156 0.10156v-0.20703c0.10156-0.82031 0.92187-1.5391 1.8477-1.7422-0.71875 0.30859-1.2305 0.92188-1.332 1.6406 0 0.30859-0.10156 0.51172 0 0.82031-0.007812 0.10938 0.19531 0.21094 0.30078 0.31641z"/>
 <path d="m36.207 57.949c0.10156 0 0.10156 0.10156 0.20703 0.10156 0.41016 0.10156 0.82031 0.10156 1.1289 0 0.51172-0.10156 0.92188-0.30859 1.4375-0.61719 0.10156-0.10156 0.20703-0.20703 0.30859-0.30859 0.10156-0.10156 0.20703-0.20703 0.30859-0.30859h0.10156c2.7695-2.3594 2.7695-5.5391 2.7695-5.5391-1.1289 1.7422-4.207 0.51172-6.0508 1.7422-1.4375 0.92188-1.9492 2.668-1.2305 3.8984l0.10156 0.10156v-0.20703c0.10156-0.82031 0.92188-1.5391 1.8477-1.7422-0.71875 0.30859-1.2305 0.92188-1.332 1.6406 0 0.30859-0.10156 0.51172 0 0.82031 0.09375 0.21094 0.19531 0.31641 0.40234 0.41797z"/>
 <path d="m49.949 71.793c-1.4375 0.92188-1.9492 2.668-1.2305 3.8984l0.10156 0.10156v-0.20703c0.10156-0.92188 0.92188-1.5391 1.8477-1.7422-0.71875 0.30859-1.2305 0.92188-1.332 1.6406 0 0.30859-0.10156 0.51172 0 0.71875 0.10156 0.20703 0.20703 0.30859 0.41016 0.30859h0.10156c0.10156 0 0.10156 0.10156 0.20703 0.10156 0.41016 0.10156 0.82031 0.10156 1.1289 0 0.51172-0.10156 0.92188-0.30859 1.4375-0.61719 0.10156 0 0.10156-0.10156 0.20703-0.10156 0.20703-0.10156 0.30859-0.20703 0.51172-0.41016 2.8711-2.3594 2.8711-5.5391 2.8711-5.5391-1.3398 1.8477-4.418 0.51563-6.2617 1.8477z"/>
 <path d="m56.309 61.949c-1.1289-1.2305-2.9727-1.4375-4-0.51172l-0.10156 0.10156h0.20703c0.92188 0 1.6406 0.61719 2.0508 1.5391-0.41016-0.61719-1.1289-1.0273-1.8477-1.0273-0.30859 0-0.61719 0-0.71875 0.20703-0.10156 0.10156-0.20703 0.30859-0.30859 0.41016v0.10156 0.10156c-0.10156 0.41016 0.10156 0.82031 0.20703 1.1289 0.20703 0.41016 0.51172 0.92188 0.82031 1.2305 0.10156 0.10156 0.20703 0.20703 0.30859 0.20703 0.10156 0.10156 0.30859 0.20703 0.41016 0.41016 2.7695 2.3594 5.9492 1.7422 5.9492 1.7422-2.1562-0.82031-1.4375-4-2.9766-5.6406z"/>
 <path d="m76.207 45.742v0c2.8711 2.3594 5.9492 1.7422 5.9492 1.7422-1.9492-0.71875-1.332-4-2.8711-5.6406-1.2305-1.2305-2.9727-1.4375-4-0.51172l-0.10156 0.10156h0.20703c0.92188 0 1.6406 0.61719 2.0508 1.4375-0.41016-0.61719-1.1289-1.0273-1.8477-1.0273-0.30859 0-0.61719 0-0.71875 0.20703-0.10156 0.10156-0.20703 0.30859-0.20703 0.41016v0.20703c-0.10156 0.41016 0.10156 0.82031 0.20703 1.1289 0.20703 0.41016 0.51172 0.92188 0.92188 1.2305 0.10156 0.10156 0.20703 0.10156 0.20703 0.20703-0.003906 0.30469 0.097656 0.40625 0.20312 0.50781z"/>
 <path d="m30.461 35.59c0 0.30859 0.10156 0.71875 0.30859 0.92188 0.20703 0.20703 0.51172 0.30859 0.71875 0.30859 0.51172 0.10156 1.1289-0.20703 1.5391-0.41016 0.51172-0.30859 1.0273-0.71875 1.4375-1.2305 0.10156-0.10156 0.10156-0.20703 0.20703-0.20703 3.2812-4 2.0508-8.4102 2.0508-8.4102-0.71875 2.5625-4.9219 2.0508-6.7695 4.207-1.332 1.6406-1.4375 3.8984-0.20703 5.1289l0.10156 0.10156v-0.20703c-0.10156-1.1289 0.61719-2.1523 1.6406-2.668-0.61719 0.61719-1.1289 1.543-1.0273 2.4648z"/>
 <path d="m66.359 65.438c-1.6406-1.332-4-1.2305-5.1289 0.10156l-0.10156 0.10156h0.20703c1.1289-0.20703 2.1523 0.41016 2.7695 1.5391-0.61719-0.71875-1.5391-1.1289-2.5625-0.92188-0.30859 0-0.71875 0.10156-0.92188 0.30859-0.20703 0.20703-0.30859 0.51172-0.30859 0.71875-0.10156 0.61719 0.20703 1.1289 0.41016 1.5391 0.30859 0.51172 0.82031 1.0273 1.332 1.4375 0.10156 0.10156 0.20703 0.20703 0.41016 0.20703 0.20703 0.10156 0.41016 0.20703 0.51172 0.41016h0.10156c3.8984 2.3594 7.793 1.1289 7.793 1.1289-2.5625-0.625-2.2539-4.8281-4.5117-6.5703z"/>
 <path d="m81.438 32.309 0.10156 0.10156c0-0.10156 0-0.10156-0.10156-0.10156 0.20703-0.92188 1.0273-1.6406 1.9492-1.7422-0.71875 0.30859-1.2305 0.92188-1.332 1.6406 0 0.30859-0.10156 0.51172 0 0.71875 0.10156 0.10156 0.20703 0.30859 0.41016 0.30859h0.10156s0.10156 0 0.10156 0.10156c0.41016 0.10156 0.82031 0.10156 1.1289 0 0.51172-0.10156 0.92188-0.30859 1.4375-0.61719 0.10156-0.10156 0.10156-0.10156 0.20703-0.20703 3.2812-2.3594 3.2812-5.8477 3.2812-5.8477-1.1289 1.7422-4.207 0.51172-6.0508 1.7422-1.3398 0.92578-1.9531 2.6719-1.2344 3.9023z"/>
 <path d="m54.461 34.562v0.20703c0-0.10156 0.10156-0.10156 0-0.20703 0.82031-1.1289 0.20703-2.8711-1.1289-3.793-1.8477-1.2305-4.9219 0-6.0508-1.7422 0 0 0 3.5898 3.2812 5.9492 0.10156 0.10156 0.10156 0.10156 0.20703 0.20703 0.41016 0.30859 0.92188 0.51172 1.4375 0.61719 0.30859 0.10156 0.71875 0.10156 1.1289 0h0.10156s0.10156 0 0.10156-0.10156c0.20703-0.10156 0.30859-0.20703 0.41016-0.30859 0.10156-0.20703 0.10156-0.51172 0-0.71875-0.10156-0.71875-0.61719-1.332-1.332-1.6406 0.92187-0.003906 1.7422 0.60938 1.8438 1.5312z"/>
 <path d="m49.332 61.641c0.82031-1.2305 1.7422-2.4609 2.7695-3.5898 2.9727-3.3828 6.4609-6.3594 10.152-9.2305 3.793-2.8711 7.5898-5.5391 11.383-8.3086 0.71875-0.61719 1.5391-1.2305 2.3594-1.8477 0.61719-0.51172 1.1289-1.0273 1.6406-1.6406 0-0.10156 0.10156-0.10156 0.10156-0.20703 0.10156-0.10156 0.20703-0.20703 0.20703-0.30859 0.20703-0.41016 0.51172-0.71875 0.71875-1.1289 0.92188-1.9492 1.0273-4 1.2305-6.0508v-0.20703 0.10156c0-0.30859 0.10156-0.51172 0.10156-0.82031-0.51172 2.2578-0.82031 4.7188-2.0508 6.5625-1.2305 1.9492-3.2812 3.0781-5.2305 4.3086-4 2.3594-8.207 4.6172-12.207 7.0781-2.2578 1.332-4.5117 2.7695-6.668 4.4102 1.9492-4.5117 4-9.1289 5.5391-13.742 1.2305-3.5898 2.3594-7.2812 2.3594-11.18 0.10156-3.8984-1.2305-7.4883-2.3594-11.078 0.71875 3.6914 1.4375 7.3828 0.82031 10.871-0.51172 3.5898-2.0508 6.8711-3.6914 10.152-0.41016 0.82031-0.82031 1.5391-1.2305 2.2578-4-0.61719-7.793-2.5625-10.152-6.1523-2.4609-3.6914-3.3828-8.4102-2.8711-13.027-1.2305 4.5117-1.1289 9.5391 1.0273 14.051 1.8477 4.1016 5.6406 7.1797 9.8477 8.8203-2.5625 4.4102-5.332 8.7188-8 13.23-1.9492 3.2812-3.6914 6.8711-5.0273 10.77-4-1.8477-6.668-5.0273-5.9492-10.152 0-1.2305 0.20703-2.4609 0.30859-3.6914 0.30859-2.1523 0.41016-4.4102 0.10156-6.668-0.30859-2.1523-1.4375-3.8984-2.8711-5.332-1.2305-1.2305-2.7695-2.2578-4.207-2.8711 2.9727 1.8477 5.332 4.8203 5.4375 8.1016 0.20703 3.2812-1.0273 6.5625-1.7422 10.152-0.82031 3.4883-0.61719 8.207 2.2578 11.59 1.6406 1.9492 3.5898 3.3828 5.5391 4.5117-0.30859 2.3594-0.30859 4.8203-0.10156 7.0781 1.0273 8 1.4375 14.051 0.51172 21.129l12.617 0.61719c0.10156-7.8984-1.8477-16.512-3.793-23.078-1.4414-5.1211-0.62109-10.148 1.1211-15.48z"/>
</svg>