<svg fill="white" xmlns="http://www.w3.org/2000/svg" version="1.1" viewBox="-5.0 -10.0 110.0 135.0">
 <path d="m46.051 37.754c1.3203-5.4922 1.5586-10.777 0.24219-16.309-0.88281-3.5977-2.5938-7.3242-5.6289-9.582-1.5977-1.1875-3.4805-1.8438-5.4922-1.8633-2.082-0.019531-4.1133 0.41016-6.0703 1.1328-3.7148 1.3789-6.9727 3.8711-9.2617 7.1055-1.5117 2.1328-2.5938 4.5-3.2227 7.0312-1.293 5.1719-0.75391 10.645 0.71484 15.723-2.0586 6.2539 0.097657 13.172 4.4648 17.887 0.5625 2.9453 0.97656 5.8945 1.4688 8.8438l0.54297 3.2539c0.34766 1.5625 0.90234 3.0781 1.7656 4.4062 1.6523 2.543 4.3125 4.082 7.3359 4.2773 2.2695 0.14844 5.2773-0.26953 7.375-1.1836 2.3516-1.0234 4.125-2.9297 4.9141-5.375 0.46875-1.4531 0.59375-2.9531 0.49609-4.4844-0.089843-1.4414-0.3125-2.8125-0.50781-4.25l-0.96094-7.0664c3.918-5.8516 4.4922-13.051 1.8203-19.547zm-1.8672 13.59c0.19922-7.043-2.8594-13.043-8.1211-17.578-0.72266-0.61719-1.4453-1.168-2.207-1.7383-0.60938-0.45703-1.3125-0.38281-1.8945 0.046875-1.9375 1.418-3.7969 2.9453-5.4141 4.7305-3.4805 3.7109-5.8359 8.3594-6.7031 13.426-0.41016-1.3477-0.61328-2.6719-0.64453-4.043-0.16016-6.9961 5.9609-14.133 11.586-17.637l0.52344-0.32812v-5.7031c0-0.71484 0.58203-1.2422 1.2734-1.2734 0.6875-0.03125 1.2734 0.60547 1.2734 1.2734v5.1953c3.6211 2.3477 6.6055 5.2344 8.75 9.0352 2.4414 4.3945 3.1523 9.7422 1.5703 14.594zm39.207-15.734c-0.41797-1.6172-0.98438-3.1719-1.75-4.6445-2.2227-4.2852-5.9062-7.6328-10.41-9.3867-1.9883-0.77344-4.0938-1.2422-6.2344-1.2695-2.0938-0.027344-4.0586 0.65625-5.707 1.9062-3.1133 2.3555-4.7422 6.0742-5.6406 9.7852-1.2031 5.3906-0.99219 10.641 0.3125 16.016-2.6836 6.5156-2.0977 13.695 1.8203 19.605l-0.4375 3.4141-0.90625 6.4492c-0.36719 3.0898-0.14453 6.2695 1.8945 8.7578 1.168 1.4258 2.7383 2.4414 4.5117 2.9805 1.7266 0.52344 3.5 0.77344 5.3398 0.77734 3.4766 0.007812 6.4648-1.5195 8.3125-4.4414 0.91016-1.4375 1.5078-3.0508 1.7773-4.7461l1.2305-7.707 0.6875-3.9375c0.99609-1.0391 1.8516-2.1797 2.5703-3.4375 1.1016-1.8242 1.8633-3.8008 2.3047-5.8906 0.61719-2.8242 0.49609-5.7422-0.39453-8.5039 1.4258-5.1211 2.0117-10.523 0.71484-15.73zm-3.25 24.91c-1.3203-7.7969-5.9102-13.793-12.266-18.234-0.58203-0.40625-1.3281-0.33594-1.8359 0.14453-6.4414 4.6055-10.383 11.078-10.227 19.195-1.4297-4.457-0.96484-9.3398 1.0312-13.496 1.9805-4.1133 5.0898-7.2695 8.8242-9.7891-0.046875-0.13281-0.078125-0.26953-0.078125-0.41016 0.003906-1.7852 0.23828-3.5625 0.24219-5.3477 0-0.71484 0.58203-1.2422 1.2734-1.2734 0.6875-0.03125 1.2734 0.60547 1.2734 1.2734-0.003906 1.7852-0.23828 3.5625-0.24219 5.3477 0 0.078124-0.011719 0.15625-0.023438 0.23047 3.7305 2.2969 6.9414 5.0625 9.4336 8.7305 2.8086 4.2305 4.1641 8.5742 2.5898 13.625z"/>
</svg>