<svg fill="white" xmlns="http://www.w3.org/2000/svg" xmlns:xlink="http://www.w3.org/1999/xlink" xmlns:a="http://ns.adobe.com/AdobeSVGViewerExtensions/3.0/" version="1.1" x="0px" y="0px" viewBox="-2.211 -9.05 100 125" overflow="visible" xml:space="preserve"><path fill="none" d="M2.758,25.303l4.407,1.054c0.227-1.031,0.521-1.847,0.683-2.258L2.758,25.303z"/><path fill="none" d="M51.071,13.769l0.215,3.4c0.193,0.002,0.385,0.006,0.585,0.007l0.27-4.281l0.095-1.24  c-0.444,0.068-0.882,0.139-1.309,0.214L51.071,13.769z"/><path fill="none" d="M65.33,13.781l0.225-2.937C64.853,10.818,64.11,10.8,63.3,10.8c-0.06,0-0.121,0.004-0.18,0.004l0.16,2.091  l0.213,3.379c0.58-0.092,1.146-0.189,1.698-0.293L65.33,13.781z"/><path d="M7.847,24.099c0.074-0.188,0.121-0.293,0.121-0.293s0.375-0.48,0.745-0.977L0.52,24.768l2.238,0.535L7.847,24.099z"/><path d="M21.749,4.373c0.014-0.083,0.098-0.619-0.005-1.287c-0.111-0.725-0.631-1.759-0.631-1.759L17.25,1.21l-3.862,0.117  c0,0-0.52,1.034-0.631,1.759c-0.107,0.698-0.009,1.262-0.002,1.304C14.149,4.656,17.612,5.131,21.749,4.373z"/><path d="M7.847,24.099c-0.162,0.411-0.456,1.227-0.683,2.258l7,1.675V14.91l0.456-0.104c0.104-0.024,3.163-0.716,8.15-1.689  l-0.285-3.719l-1.002-4.786l0.062-0.05c-1.573,0.273-3.052,0.38-4.346,0.38c-1.846,0-3.318-0.195-4.211-0.352l0.027,0.022  l-1.002,4.786l-0.334,4.371l-0.333,5.303c0,0-1.819,2.405-1.931,2.715c-0.052,0.146-0.375,0.601-0.703,1.042  c-0.37,0.497-0.745,0.977-0.745,0.977S7.921,23.911,7.847,24.099z"/><polygon points="16.845,1.198 17.25,1.21 17.656,1.198 "/><path d="M50,4.373c0.015-0.083,0.098-0.619-0.005-1.287c-0.111-0.725-0.631-1.759-0.631-1.759L45.5,1.21l-3.862,0.117  c0,0-0.52,1.034-0.631,1.759c-0.107,0.698-0.01,1.262-0.002,1.304C42.399,4.656,45.863,5.131,50,4.373z"/><path d="M50.926,11.87c-1.827,0.321-3.504,0.702-4.94,1.132c-3.53,1.058-4.246,2.003-4.223,2.278  c0.046,0.572,2.537,1.797,9.523,1.89l-0.215-3.4L50.926,11.87z"/><path d="M49.735,4.612l0.062-0.05c-1.572,0.273-3.052,0.38-4.346,0.38c-1.845,0-3.317-0.195-4.21-0.352l0.027,0.022l-1.002,4.786  l-0.052,0.686c3.293-0.503,6.772-0.993,10.366-1.442L49.735,4.612z"/><polygon points="45.096,1.198 45.5,1.21 45.906,1.198 "/><path d="M75.399,4.385c0.015-0.083,0.098-0.619-0.005-1.287c-0.111-0.725-0.631-1.759-0.631-1.759L70.9,1.222l-3.862,0.117  c0,0-0.52,1.034-0.631,1.759c-0.107,0.698-0.01,1.262-0.003,1.304C67.799,4.668,71.262,5.144,75.399,4.385z"/><path d="M65.192,15.98c1.556-0.293,2.992-0.629,4.242-1.004c3.53-1.058,4.246-2.003,4.224-2.278  c-0.043-0.532-2.197-1.627-8.104-1.854l-0.225,2.937L65.192,15.98z"/><path d="M75.134,4.624l0.062-0.049c-1.573,0.273-3.053,0.38-4.347,0.38c-1.846,0-3.317-0.195-4.21-0.352l0.026,0.021l-0.516,2.459  c3.151-0.228,6.298-0.391,9.398-0.479L75.134,4.624z"/><polygon points="70.495,1.21 70.9,1.222 71.305,1.21 "/><path d="M14.165,14.91v13.122l1.175,0.28V15.85c1.362-0.302,5.677-1.235,11.798-2.367l0.037-0.587l0.047-0.622  c-1.611,0.297-3.104,0.581-4.452,0.844c-4.987,0.974-8.046,1.666-8.15,1.689L14.165,14.91z"/><path d="M91.334,8.149v10.527c0.412,0.556,0.922,1.254,1.175,1.646V7.078l-0.533-0.05c-0.71-0.067-1.448-0.123-2.19-0.176  l0.251,1.199C90.47,8.083,90.913,8.111,91.334,8.149z"/><path d="M79.698,7.71l0.247-1.176c-1.45,0.004-2.918,0.029-4.396,0.071c-3.101,0.087-6.247,0.251-9.398,0.479  C65,7.166,63.85,7.259,62.703,7.357l0.242,1.157C68.576,8.037,74.25,7.734,79.698,7.71z"/><path d="M52.392,9.601l0.082-1.077L52.5,8.405c-0.646,0.077-1.283,0.157-1.921,0.236c-3.594,0.449-7.073,0.939-10.366,1.442  c-0.705,0.108-1.4,0.216-2.087,0.325l0.09,1.174C42.618,10.885,47.41,10.2,52.392,9.601z"/><path d="M40.591,15.374c0.208,2.583,7.518,2.951,11.102,2.976c0.066-0.089,0.114-0.151,0.114-0.151l0.063-1.023  c-0.2-0.001-0.392-0.004-0.585-0.007c-6.986-0.092-9.477-1.317-9.523-1.89c-0.022-0.275,0.693-1.22,4.223-2.278  c1.436-0.43,3.113-0.811,4.94-1.132c0.427-0.075,0.864-0.146,1.309-0.214l0.092-1.204c-2.501,0.375-4.787,0.858-6.678,1.425  C42.14,12.928,40.486,14.072,40.591,15.374z"/><path d="M74.829,12.604C74.611,9.916,66.694,9.625,63.3,9.625c-0.089,0-0.182,0.006-0.269,0.006l0.089,1.173  c0.059,0,0.12-0.004,0.18-0.004c0.81,0,1.553,0.018,2.254,0.045c5.906,0.227,8.061,1.322,8.104,1.854  c0.022,0.275-0.693,1.22-4.224,2.278c-1.25,0.375-2.687,0.711-4.242,1.004c-0.552,0.104-1.118,0.202-1.698,0.293l0.074,1.178  c2.313-0.364,4.434-0.819,6.203-1.35C73.28,15.051,74.934,13.907,74.829,12.604z"/><path d="M79.595,8.2l-0.334,4.371l-0.333,5.303c0,0-1.819,2.405-1.931,2.715c-0.111,0.311-1.447,2.018-1.447,2.018  s-0.882,1.963-1.079,4.363l20.371-2.135c-0.323-1.326-0.729-2.228-0.729-2.228s-1.337-1.708-1.448-2.018  c-0.016-0.045-0.077-0.146-0.156-0.269c-0.253-0.392-0.763-1.09-1.175-1.646c-0.333-0.45-0.599-0.801-0.599-0.801l-0.334-5.303  L90.068,8.2l-0.031-0.149l-0.251-1.199l-0.72-3.438l0.094-0.075c-1.625,0.292-3.152,0.406-4.484,0.406  c-1.761,0-3.174-0.177-4.077-0.33l-0.653,3.119L79.698,7.71L79.595,8.2z"/><polygon points="84.427,0 84.832,0.012 85.237,0 "/><path d="M80.349,3.215c1.483,0.272,4.918,0.705,8.985-0.062c0.02-0.126,0.089-0.634-0.009-1.266  c-0.111-0.725-0.631-1.759-0.631-1.759l-3.863-0.117l-3.862,0.117c0,0-0.52,1.034-0.631,1.759c-0.111,0.724,0,1.319,0,1.319  L80.349,3.215z"/><path d="M52.392,9.601l-0.065,0.85l-0.092,1.204l-0.095,1.24l-0.27,4.281l-0.063,1.023c0,0-0.048,0.062-0.114,0.151  c-0.391,0.519-1.722,2.299-1.816,2.564c-0.111,0.31-1.448,2.018-1.448,2.018s-1.224,2.716-1.113,5.665  c0.012,0.302,0.02,0.72,0.027,1.216l20.752-2.174c-0.134-2.554-1.104-4.707-1.104-4.707s-1.336-1.708-1.447-2.018  c-0.111-0.311-1.93-2.715-1.93-2.715l-0.047-0.747l-0.074-1.178l-0.213-3.379l-0.16-2.091l-0.089-1.173l-0.085-1.107l-0.002-0.009  l-0.242-1.157l-0.759-3.619l0.063-0.049c-1.573,0.272-3.053,0.38-4.347,0.38c-1.846,0-3.317-0.195-4.212-0.352l0.027,0.021  L52.5,8.405l-0.025,0.119L52.392,9.601z"/><polygon points="57.305,0.324 57.71,0.336 58.116,0.324 "/><path d="M62.209,3.499c0.014-0.083,0.098-0.619-0.005-1.287c-0.111-0.724-0.631-1.758-0.631-1.758L57.71,0.336l-3.862,0.118  c0,0-0.52,1.034-0.631,1.758c-0.107,0.699-0.009,1.264-0.002,1.305C54.61,3.783,58.072,4.259,62.209,3.499z"/><path d="M37.244,3.499c0.014-0.083,0.098-0.619-0.005-1.287c-0.111-0.724-0.631-1.758-0.631-1.758l-3.863-0.118l-3.862,0.118  c0,0-0.52,1.034-0.631,1.758c-0.107,0.698-0.01,1.263-0.002,1.304C29.644,3.782,33.107,4.258,37.244,3.499z"/><path d="M27.138,13.482l-0.296,4.716c0,0-1.819,2.405-1.931,2.715c-0.111,0.31-1.448,2.018-1.448,2.018s-1.225,2.716-1.113,5.665  c0.013,0.339,0.022,0.821,0.03,1.4l7.071,1.691l13.658-1.43c0.007-0.698,0.018-1.272,0.032-1.661  c0.111-2.949-1.113-5.665-1.113-5.665s-1.337-1.708-1.448-2.018c-0.111-0.311-1.931-2.715-1.931-2.715l-0.333-5.304l-0.1-1.313  l-0.09-1.174l-0.144-1.884l-1.002-4.786l0.062-0.049c-1.573,0.272-3.052,0.38-4.346,0.38c-1.846,0-3.317-0.195-4.21-0.352  l0.027,0.021l-1.002,4.786l-0.287,3.749l-0.047,0.622L27.138,13.482z"/><polygon points="32.34,0.324 32.745,0.336 33.15,0.324 "/><polygon points="94.842,24.836 74.471,26.971 68.095,27.639 47.343,29.813 43.108,30.257 29.451,31.688 29.93,31.803 30.055,66.601   30.224,66.483 29.935,32.678 87.326,26.665 88.208,26.049 95.378,25.3 95.211,34.811 94.688,35.2 94.178,64.249 45.711,71.562   44.868,72.188 30.083,74.412 30.085,74.966 94.766,65.207 95.199,65.142 95.906,24.725 "/><polygon points="29.263,75.09 29.542,75.047 29.261,74.92 "/><polygon points="44.868,72.188 45.711,71.562 94.688,35.2 95.211,34.811 95.378,25.3 88.208,26.049 87.326,26.665 30.224,66.483   30.055,66.601 30.083,74.412 "/><path d="M30.055,66.601L29.93,31.803l-0.479-0.115l-7.071-1.691l-7.04-1.685l-1.175-0.28l-7-1.675l-4.407-1.054L0.52,24.768  L0,24.643v37.019L29.261,74.92l0.281,0.127l0.544,0.247l-0.001-0.328l-0.002-0.555L30.055,66.601z M1.037,60.993V25.958l27.86,6.664  l0.146,41.063L1.037,60.993z"/></svg>