<svg fill="white" xmlns="http://www.w3.org/2000/svg" xmlns:xlink="http://www.w3.org/1999/xlink" version="1.1" x="0px" y="0px" viewBox="0 0 100 125" xml:space="preserve"><circle fill="white" cx="47.11" cy="23.744" r="6.855"/><path fill="white" d="M75.342,91.271L63.211,70.297c3.185-1.378,3.773-2.481,3.773-2.481S58.161,53.29,52.169,51.133  c-0.614-2.38-1.134-4.84-1.251-6.682c-0.13-2.025-0.052-4.44,0.085-6.606l10.06,4.309l-1.216,11.538  c-0.163,1.555,0.963,2.946,2.517,3.11c0.146,0.015,0.295,0.019,0.438,0.012c1.369-0.066,2.523-1.123,2.672-2.529l1.433-13.613  c0.131-1.233-0.558-2.407-1.698-2.896l-13.803-5.913c-0.791-0.339-1.649-0.289-2.364,0.064l-9.643-0.076L34.849,3.813  c-0.237-1.476-1.629-2.474-3.103-2.238c-1.476,0.24-2.477,1.629-2.238,3.104L34.6,36.076c0.011,0.065,0.024,0.127,0.042,0.192  c-0.098,3.57-0.059,8.56,0.662,12.151c0.696,3.466,1.829,6.638,2.882,9.116l-14.074,9.732c0,0,0.683,0.865,2.117,1.991l-0.061,0.053  c-0.938,0.816-1.449,2.017-1.39,3.259l1.066,22.027c0.111,2.238,2.013,3.966,4.251,3.857c2.24-0.107,3.965-2.011,3.858-4.25  l-0.973-20.062l1.084-0.942c3.432,1.003,7.802,1.524,13.194,0.824c3.115-0.403,5.744-0.858,7.962-1.337l13.099,22.646  c0.783,1.362,2.24,2.095,3.711,2.023c0.624-0.031,1.254-0.207,1.832-0.541C75.801,95.693,76.465,93.208,75.342,91.271z"/></svg>