<svg fill="white" xmlns="http://www.w3.org/2000/svg" version="1.1" viewBox="-5.0 -10.0 110.0 135.0">
 <path d="m60.605 12.152 3.5352-4.7969-0.98438-0.72656-2.8984 3.9375-10.258-5.5664-10.254 5.5625-2.8984-3.9375-0.98828 0.73047 3.5352 4.7969 5.3945-2.9453c0.66406 0.98828 2.1602 3.6914 1.8555 5.5156l-0.11719 0.71484h0.52344c-1.1992 1.8477-3.6328 5.9922-3.9922 9.6758-0.45703 4.6641-1.9805 57.488-2.0469 59.734l-0.007813 0.25 8.9961 9.9023 8.9961-9.9023-0.007813-0.25c-0.066406-2.2461-1.5898-55.07-2.0469-59.734-0.35938-3.6797-2.7969-7.8281-3.9922-9.6758h0.52344l-0.11719-0.71484c-0.34375-2.0586 1.5156-5.0039 1.8516-5.5156z"/>
</svg>