<svg fill="white" xmlns="http://www.w3.org/2000/svg" version="1.1" viewBox="-5.0 -10.0 110.0 135.0">
 <path d="m27.18 95.145c-6.6406 0-12.883-2.5859-17.578-7.2812-9.5078-9.5078-9.6641-24.848-0.52344-34.578l35.105 35.105c-4.625 4.3477-10.621 6.7578-17 6.7578zm18.105-7.8594-35.105-35.105c4.625-4.3477 10.621-6.7578 17-6.7578 6.6406 0 12.883 2.5859 17.578 7.2812 9.5078 9.5078 9.668 24.848 0.52344 34.578z"/>
 <path d="m42.867 30.879c-5.9453-5.9453-5.9414-15.617 0-21.559 2.8789-2.8789 6.707-4.4648 10.781-4.4648 4.0742 0 7.9023 1.5859 10.781 4.4648l13.832 13.832-21.559 21.559-13.832-13.832zm50.332 28.773c-5.9453 5.9414-15.613 5.9453-21.559 0l-13.836-13.836 21.559-21.559 13.836 13.836c5.9453 5.9453 5.9414 15.617 0 21.559z"/>
</svg>