<svg fill="white" xmlns="http://www.w3.org/2000/svg" version="1.1" viewBox="-5.0 -10.0 110.0 135.0">
 <path d="m90.625 50c0 2.2656-0.1875 4.5469-0.57031 6.7734-0.25781 1.5234-1.5781 2.6016-3.0781 2.6016-0.17187 0-0.35156-0.015625-0.52344-0.046875-1.7031-0.28906-2.8516-1.8984-2.5625-3.6016 0.32031-1.8828 0.47656-3.8125 0.47656-5.7266 0-18.953-15.422-34.375-34.375-34.375-18.953 0-34.367 15.422-34.367 34.375 0 1.9219 0.16406 3.8438 0.47656 5.7266 0.28906 1.7031-0.85937 3.3125-2.5625 3.6016-1.6953 0.28906-3.3125-0.85938-3.6016-2.5625-0.375-2.2188-0.5625-4.5-0.5625-6.7656 0-22.398 18.227-40.625 40.625-40.625s40.625 18.227 40.625 40.625zm-8.4531 18.891c-8.4922-2.625-11.812-8.7188-13.062-11.008-0.3125-0.57812-0.63281-1.2578-0.96094-1.9766-1.0938-2.3672-2.4609-5.3125-5.1406-7.1406-0.14844-0.09375-0.30469-0.19531-0.46094-0.28125-0.007813-0.007813-0.015625-0.015625-0.023437-0.015625-0.023438-0.007812-0.039063-0.023438-0.054688-0.03125-0.007812-0.007812-0.015625-0.007812-0.023438-0.015625 0 0-0.007812 0-0.015624-0.007813-3.3828-1.9844-8.7969-2.6875-12.43-2.6875-2.1562 0-4.5078 0.23438-6.6094 0.64844-2.3594 0.46875-4.3203 1.1562-5.8203 2.0391 0 0-0.007812 0-0.007812 0.007813-0.015625 0.007813-0.023438 0.015625-0.03125 0.015625-0.015625 0.007812-0.039062 0.023438-0.0625 0.03125-0.007812 0.007812-0.015625 0.015625-0.023438 0.015625-0.15625 0.09375-0.3125 0.1875-0.49219 0.30469-2.6484 1.8047-4.0156 4.75-5.1094 7.1172-0.32812 0.71875-0.64844 1.3906-0.96094 1.9766-1.1641 2.1484-6.6406 9.0156-13.062 11.008-1.6484 0.50781-2.5703 2.2578-2.0625 3.9062 0.42188 1.3438 1.6562 2.2031 2.9922 2.2031 0.30469 0 0.61719-0.046875 0.92969-0.14062 8.2734-2.5625 14.828-10.531 16.703-13.992 0.41406-0.75781 0.78125-1.5547 1.1406-2.3281 0.13281-0.28906 0.27344-0.58594 0.41406-0.875 0.39844 4.875 1.0625 11.18 2.0625 15.383-8.9141-1.0312-17.828 2.5391-20.414 6.9688-1.5625 2.6875-0.875 6.2578 1.6797 8.6875 2.3438 2.2188 5.9844 3.4844 9.9922 3.4844 6.8672 0 11.398-2.1719 15.773-4.2656 0.023438-0.007813 0.039062-0.023437 0.0625-0.03125 1.1562-0.82031 2.3984-1.6328 3.7266-2.375 0.64063-0.35938 1.2969-0.70312 1.9766-1.0234 2.3672-1.1406 4.9766-2.0234 7.8125-2.4375 1.2734-0.1875 2.4688 0.70312 2.6562 1.9844s-0.70312 2.4688-1.9844 2.6562c-0.74219 0.10938-1.4766 0.25-2.2109 0.44531-0.74219 0.1875-1.4844 0.41406-2.2266 0.69531-0.64844 0.24219-1.2969 0.51562-1.9531 0.83594 0.50781 0.22656 1 0.45312 1.4922 0.67969 3.1406 1.4531 6.1172 2.8359 12.367 2.8359 2 0 3.9141-0.3125 5.6172-0.90625 1.7109-0.59375 3.2031-1.4688 4.375-2.5781 2.5547-2.4297 3.2422-6 1.6797-8.6875-2.5938-4.4375-11.523-8.0156-20.453-6.9609 0.92969-4.1406 1.6406-10.523 2.0625-15.469v-0.007813c0.14844 0.32031 0.30469 0.64062 0.44531 0.95312 0.35938 0.77344 0.72656 1.5781 1.1406 2.3359 1.4297 2.625 5.7891 10.609 16.703 13.992 0.30469 0.09375 0.61719 0.14062 0.92188 0.14062 1.3359 0 2.5703-0.85938 2.9844-2.2031 0.51563-1.6484-0.40625-3.3984-2.0547-3.9062zm-32.172-26.703c5.2812 0 9.375-5.8828 9.375-10.938 0-5.1719-4.2031-9.375-9.375-9.375s-9.375 4.2031-9.375 9.375c0 5.0547 4.0938 10.938 9.375 10.938z"/>
</svg>