<svg fill="white" xmlns="http://www.w3.org/2000/svg" xmlns:xlink="http://www.w3.org/1999/xlink" version="1.1" x="0px" y="0px" viewBox="0 0 48 60" xml:space="preserve"><g><path fill="white" d="M38.8,35.6l8.7-20.9l-6.4-7.3l-2.2,2l5.2,5.9l-8.5,20.3H4.2c-2.1,0-3.7,1.7-3.7,3.7c0,2.1,1.7,3.7,3.7,3.7   h0.7v4.5h4.7V43h22.7v4.5H37V43h1.5c2.1,0,3.7-1.7,3.7-3.7C42.2,37.3,40.7,35.7,38.8,35.6z"/><ellipse fill="white" cx="25.8" cy="3.7" rx="3.3" ry="3.2"/><path fill="white" d="M8.9,29.6c2.9,0.4,5.4-0.3,7.4-1.9c2.4-1.9,3.4-4.7,3.8-6.5c6,3.8,7.9,10.5,7.9,10.5c0.2,0.9,1.1,1.4,2,1.4   c0.2,0,0.3,0,0.5-0.1c1.1-0.3,1.7-1.3,1.4-2.4c-0.1-0.3-1.9-6.6-7.6-11.3l2.2-5.3c3.9,0.2,7.2-2.3,8.7-4.1C36,9.2,35.8,8,34.9,7.3   c-0.9-0.7-2.1-0.5-2.8,0.3c-0.1,0.2-3.6,4.3-7.5,1.9c-4.4-2.7-7.4-2.3-9.2-1.5c-2.6,1.2-4.1,3.8-4.7,7.9c-0.1,1.1,0.6,2,1.7,2.2   c0.1,0,0.2,0,0.3,0c1,0,1.9-0.7,2-1.7c0.4-2.6,1.2-4.4,2.4-4.9c0.6-0.3,1.5-0.3,2.5,0l-2.9,6.6c-0.2,0.3-0.3,0.6-0.3,0.9   c0,0-0.3,3.7-2.6,5.6c-1.1,0.9-2.5,1.2-4.3,1c-1.1-0.1-2.1,0.6-2.3,1.7C7,28.5,7.8,29.5,8.9,29.6z"/></g></svg>