<svg fill="white" xmlns="http://www.w3.org/2000/svg" version="1.1" viewBox="-5.0 -10.0 110.0 135.0">
 <path d="m15.926 49.695c-0.92188 0.96094 0.53516 2.375 1.4688 1.418 0 0 5.4961-5.6836 5.4961-5.6836v16.512c0.69531-0.89062 1.3789-1.8008 2.0391-2.7188v-13.793l5.3828 5.5703c0.37109-0.62109 0.73047-1.2266 1.0742-1.8242l-6.4609-6.6836v-5.4062l5.4961 5.6836c0.39062 0.40625 1.0391 0.41797 1.4414 0.023438 0.40625-0.39062 0.41797-1.0391 0.023438-1.4414l-6.9609-7.2031v-5.4062l5.4961 5.6836c0.92578 0.95312 2.3945-0.45312 1.4648-1.418 0 0-7.25-7.4961-7.25-7.4961-0.26562-0.21094-0.39062-0.26953-0.72656-0.30859-0.27734 0.015625-0.53516 0.12891-0.73828 0.30859 0 0-7.25 7.4961-7.25 7.4961-0.92188 0.95703 0.53125 2.3789 1.4688 1.418 0 0 5.4961-5.6836 5.4961-5.6836v5.4062l-6.9609 7.2031c-0.39062 0.40625-0.38281 1.0508 0.023438 1.4414 0.40234 0.39062 1.0508 0.38281 1.4414-0.023438 0 0 5.4922-5.6836 5.4922-5.6836v5.4062l-6.9609 7.1992z"/>
 <path d="m40.906 35.945c-0.92188 0.96094 0.53516 2.375 1.4688 1.418 0 0 5.4961-5.6836 5.4961-5.6836v11.656c0.67188 0.058593 1.3516 0.10547 2.0391 0.13672v-11.793l5.4961 5.6836c0.39062 0.40625 1.0391 0.41797 1.4414 0.023438 0.40234-0.39062 0.41406-1.0391 0.023438-1.4414l-6.9609-7.1992v-5.4062l5.4961 5.6836c0.39062 0.40625 1.0391 0.41797 1.4414 0.023437 0.40234-0.39062 0.41406-1.0391 0.023438-1.4414l-6.9609-7.1992v-5.4062l5.4961 5.6836c0.92578 0.95312 2.3945-0.45312 1.4648-1.418l-7.2461-7.5c-0.24609-0.20703-0.41406-0.27344-0.73438-0.3125-0.32031 0.035156-0.48438 0.10547-0.73438 0.3125l-7.2461 7.5c-0.92188 0.95703 0.53125 2.375 1.4688 1.418l5.4922-5.6836v5.4062l-6.9609 7.1992c-0.39062 0.40625-0.38281 1.0508 0.023438 1.4414 0.40234 0.39062 1.0508 0.38281 1.4414-0.023437 0 0 5.4961-5.6836 5.4961-5.6836v5.4062l-6.9609 7.1992z"/>
 <path d="m94.219 73.668c-0.75391-0.25391-1.2773 0.29688-1.4375 0.98828-1.3398-0.375-4.1758-1.4023-7.1719-3.8047-0.16406-0.12891-13.098-10.59-17.426-26.449-0.14844-0.53906-0.70312-0.86328-1.2461-0.71875-0.054688 0.015625-5.5938 1.4688-13.215 1.832-6.9062 0.33203-14.574-1.457-16.074-1.8281-0.25781-0.058594-0.53906-0.042969-0.76563 0.089844-0.12109 0.0625-0.24219 0.15234-0.30859 0.26562-0.77734 1.2969-1.5391 2.9062-2.6172 4.75-5.3281 8.9414-15.125 25.715-26.594 27.078l-0.29297-0.72266c-0.51953-1.2305-2.375-0.49219-1.8906 0.76172l1.8594 4.6055c0.21094 0.52734 0.82031 0.77344 1.3281 0.56641 0.52344-0.21094 0.77734-0.80469 0.5625-1.3281l-0.76953-1.9062c1.4453-0.17578 3.9102-0.78125 6.8555-2.6328 0.47266 0.058594 1.3906 0.16406 2.6641 0.25391 0.39844-1.8125 1.0234-3.0898 1.4922-4.168-0.48047 2.6094-0.60938 7.543-1.0977 9.4648-0.19141 0.57422 0.22266 1.2305 0.82422 1.3086 2.5 0.375 5.0117 0.75391 7.5078 1.1406 6.9648 1.0508 15.629 2.375 22.664 3.4375-0.3125-2.0625-0.86328-5.9414-1.1484-9.4453-5.0156-6.0195-11.957-20.625-11.23-29.938 2.0312 12.895 8.3672 22.695 11.184 26.531 3.9609 5.8164 9.7852 9.8789 14.945 12.164l-0.72266 2.0195c-0.44141 1.2539 1.4609 1.9453 1.9219 0.6875 0.019531-0.12891 1.7656-4.7344 1.6172-4.7461 0.015625 0.03125 0 1.8359 0.007812 1.8711 4.75-0.85156 9.4375-2.2188 13.938-4.0625 0.41406-0.16797 0.66797-0.58984 0.62891-1.0352 0 0-0.10156-1.1406-0.30078-3.0547-6.9453 2.8359-14.688 4.1289-19.68 4.6953-0.89062-0.51562-1.8242-1.1094-2.7734-1.7734 5.8789-0.34766 19.914-2.7656 27.457-7.6914 2.9648 2.2422 5.6914 3.2695 7.1797 3.6992l-0.77734 2.1719c-0.44531 1.2539 1.4609 1.9453 1.9219 0.6875l1.5977-4.4727c0.19141-0.53125-0.085938-1.1133-0.61719-1.3047zm-56.242 9.2461c-3.1875-0.48828-6.3711-0.97266-9.5586-1.4531 3.2266-4.4414 5.2891-9.3945 6.5352-13.203 0.40234 4.2656 1.2461 9.9141 3.0195 14.656z"/>
 <path d="m53.344 82.602c-1.0938-0.82812-2.0234-1.6406-3.1211-2.7812 0.32031 2.8711 0.72656 5.6367 0.94141 7.0352 3.0625 0.125 6.1328-0.007813 9.1758-0.31641-2.2539-0.92969-4.7695-2.1172-6.9961-3.9336z"/>
 <path d="m75.906 36.629c4.8125 0 9.0938-2.8867 10.906-7.3555 0.16406-0.40625 0.050781-0.875-0.28516-1.1602-0.33594-0.28516-0.81641-0.32422-1.1914-0.09375-1.2031 0.73047-2.5742 1.1172-3.9688 1.1172-7.6172-0.03125-10.539-10.004-4.1289-14.125 0.37109-0.23828 0.50391-0.6875 0.39453-1.1133-0.19141-0.76953-1.0703-0.82422-1.7305-0.80469-15.609 0.64453-15.609 22.891 0 23.535z"/>
</svg>