<svg xmlns="http://www.w3.org/2000/svg" xmlns:xlink="http://www.w3.org/1999/xlink" version="1.1" x="0px" y="0px" viewBox="0 0 205.5 256.875" enable-background="new 0 0 205.5 205.5" xml:space="preserve" fill="white"><g><path d="M1499.974,2730.287c1.772,1.895,0.729,6.605,1,10c9.824,0.506,21.774-1.111,29.995,1   c8.33,38.461-14.78,66.709-39.995,81.988c-9.046,5.482-18.373,8.277-27.996,13c-13.478,6.613-22.274,20.434-34.996,24.996   c-6.418,29.748,20.507,26.158,21.998,47.994c7.248,4.75,15.229,8.77,14.998,20.996c-31.661,2.334-67.654,0.334-100.984,1   c-0.593-13.256,7.666-17.664,15.998-21.996c0.275-16.385,13.854-19.473,20.997-28.996c0-6,0-12,0-17.998   c-10.451-9.213-23.836-15.494-32.996-25.996c-20.256-5.404-40.938-15.896-53.992-30.996   c-12.804-14.816-21.075-40.064-15.998-63.992c7.9-2.1,19.494-0.504,28.996-1c2.613-1.387-0.483-8.486,2-10   C1385.985,2730.287,1442.979,2730.287,1499.974,2730.287z M1343.992,2808.277c-7.212-15.119-13.44-31.221-14.998-51.992   c-5.666,0-11.332,0-16.998,0C1314.942,2781.334,1325.724,2798.551,1343.992,2808.277z M1485.976,2808.277   c17.088-10.574,28.184-27.145,30.995-51.992c-5.666,0-11.332,0-16.998,0C1499.103,2776.748,1490.767,2795.07,1485.976,2808.277z"/><path fill="#FFFFFF" d="M1311.996,2756.285c5.666,0,11.332,0,16.998,0c1.558,20.771,7.787,36.873,14.998,51.992   C1325.724,2798.551,1314.942,2781.334,1311.996,2756.285z"/><path fill="#FFFFFF" d="M1499.974,2756.285c5.666,0,11.332,0,16.998,0c-2.812,24.848-13.908,41.418-30.996,51.992   C1490.767,2795.07,1499.103,2776.748,1499.974,2756.285z"/></g><path d="M179.66,131.792c-3.041-14.429-15.876-23.226-29.48-26.175c3.268-29.55,11.566-73.208-19.022-90.239  c-8.566-4.771-19.511-6.615-29.033-4.223c-10.174,2.556-17.677,11-23.023,19.537C72.746,40.839,68.684,52.786,65.304,64.19  c-2.025,6.832-3.332,13.807-4.202,20.872c-0.335,2.721-0.529,5.457-0.603,8.196c-0.036,1.32,0.049,5.77-0.067,5.969  c-0.315,0.537-0.518,1.069-0.626,1.587c-14.973,3.354-27.912,18.205-34.319,31.077c-7.933,15.936-5.934,38.463,10.362,48.472  c16.642,10.221,48.555,3.937,59.567-13.779c5.405,7.82,13.441,13.339,23.539,15.222c14.495,2.702,29.848-1.9,41.888-9.997  C174.162,162.85,183.103,148.118,179.66,131.792z M84.584,41.416c3.902-7.862,9.445-16.385,17.9-19.86  c2.042-0.839,4.207-1.309,6.418-1.476c-1.494,4.829-1.271,11.592-0.911,15.989c-0.138,0.619-0.172,1.29-0.062,2.01  c0.108,0.715,0.327,1.308,0.5,2c1.341,5.366,10.451,4.356,9.821-1.329c-0.319-2.884-0.288-5.815-0.236-8.713  c0.035-1.889,0.145-3.775,0.323-5.655c0.076-0.795,0.071-0.597,0.206-1.324c0.035-0.186,0.062-0.33,0.086-0.451  c0.351-0.373,0.646-0.796,0.884-1.247c2.969,0.885,5.806,2.146,8.312,3.641c10.661,6.363,14.092,19.142,15.147,31.063  c-10.077,1.885-20.081,3.991-30.346,4.678c-11.021,0.738-24.379,0.342-31.84-9.028c-0.178-0.224-0.364-0.415-0.552-0.592  C81.576,47.818,83.02,44.568,84.584,41.416z M153.872,164.439c-9.303,5.992-21.184,9.476-32.258,7.723  c-11.729-1.857-19.476-10.021-22.543-21.241c-1.472-5.388-10.028-4.384-9.821,1.329c0.346,9.532-7.882,15.861-15.953,19.192  c-9.227,3.809-20.104,5.019-29.626,1.651c-13.172-4.659-14.57-22.016-10.748-33.273c2.538-7.476,8.045-13.693,13.452-19.258  c5.267-5.419,12.918-11.762,21.046-10.491c6.235,0.976,8.947-8.426,2.864-9.6c0.343-2.398,0.17-4.985,0.214-7.214  c0.119-5.948,1.005-11.841,2.22-17.656c0.975-4.664,2.222-9.332,3.693-13.942c8.798,8.197,22.1,9.575,33.713,9.207  c11.244-0.355,22.262-2.638,33.278-4.739c0.043,14.608-2.268,29.109-3.654,43.622c-0.278,2.911,2.5,4.745,5,5  c11.611,1.186,22.301,7.964,25.268,19.7C173.187,146.986,163.656,158.137,153.872,164.439z"/><path d="M133.997,153.501c-0.921-1.06-2.256-1.751-3.747-1.751c-2.72,0-5.008,2.274-5,5c0.005,1.477,0.448,2.892,1.512,3.954  c1.08,1.081,2.482,1.541,3.988,1.546c2.726,0.008,5-2.28,5-5C135.75,155.758,135.058,154.422,133.997,153.501z"/><path d="M120.25,135.75h-0.375c-6.449,0-6.449,10,0,10h0.375C126.699,145.75,126.699,135.75,120.25,135.75z"/><path d="M151.25,130.25c-1.491,0-2.826,0.691-3.747,1.751c-1.061,0.921-1.753,2.257-1.753,3.749c0,2.72,2.274,5.008,5,5  c1.477-0.004,2.892-0.448,3.954-1.512c1.081-1.08,1.541-2.482,1.546-3.988C156.258,132.524,153.97,130.25,151.25,130.25z"/><path d="M78.786,129.215c-0.167-0.167-0.333-0.334-0.5-0.5c-1.926-1.927-5.145-1.927-7.071,0c-1.926,1.926-1.926,5.145,0,7.07  c0.167,0.167,0.333,0.334,0.5,0.5c1.926,1.927,5.145,1.927,7.071,0C80.712,134.359,80.712,131.141,78.786,129.215z"/><path d="M54.25,128.75c-6.449,0-6.449,10,0,10S60.699,128.75,54.25,128.75z"/><path d="M62.25,147.75c-6.449,0-6.449,10,0,10S68.699,147.75,62.25,147.75z"/></svg>